<svg width="523" height="141" viewBox="0 0 523 141" fill="none" xmlns="http://www.w3.org/2000/svg">
<path d="M0.848 6.584L0.386 0.489999H2.476L2.058 6.584H0.848ZM4.61 6.584L4.148 0.489999H6.238L5.82 6.584H4.61ZM13.7538 16V2.052H8.12175V0.489999H21.2118V2.052H15.5798V16H13.7538ZM23.3801 16V0.489999H25.1621V7.068C25.5141 6.42267 26.0055 5.93867 26.6361 5.616C27.2815 5.27867 28.0001 5.11 28.7921 5.11C31.3295 5.11 32.5981 6.518 32.5981 9.334V16H30.8161V9.444C30.8161 8.44667 30.6181 7.72067 30.2221 7.266C29.8408 6.79667 29.2248 6.562 28.3741 6.562C27.3915 6.562 26.6068 6.87 26.0201 7.486C25.4481 8.08733 25.1621 8.894 25.1621 9.906V16H23.3801ZM39.69 16.198C38.9567 16.198 38.2967 16.0587 37.71 15.78C37.138 15.4867 36.6834 15.0907 36.346 14.592C36.0087 14.0933 35.84 13.536 35.84 12.92C35.84 12.1427 36.038 11.5267 36.434 11.072C36.8447 10.6173 37.512 10.2947 38.436 10.104C39.3747 9.89867 40.6507 9.796 42.264 9.796H42.968V9.114C42.968 8.20467 42.7774 7.552 42.396 7.156C42.0294 6.74533 41.4354 6.54 40.614 6.54C39.9687 6.54 39.3454 6.63533 38.744 6.826C38.1427 7.002 37.5267 7.29533 36.896 7.706L36.28 6.408C36.8374 6.012 37.512 5.69667 38.304 5.462C39.1107 5.22733 39.8807 5.11 40.614 5.11C41.9927 5.11 43.012 5.44733 43.672 6.122C44.3467 6.79667 44.684 7.84533 44.684 9.268V16H43.012V14.152C42.7334 14.7827 42.3007 15.2813 41.714 15.648C41.142 16.0147 40.4674 16.198 39.69 16.198ZM39.976 14.856C40.856 14.856 41.5747 14.5553 42.132 13.954C42.6894 13.338 42.968 12.5607 42.968 11.622V10.962H42.286C41.098 10.962 40.1594 11.0207 39.47 11.138C38.7954 11.2407 38.3187 11.4313 38.04 11.71C37.776 11.974 37.644 12.3407 37.644 12.81C37.644 13.4113 37.8494 13.9027 38.26 14.284C38.6854 14.6653 39.2574 14.856 39.976 14.856ZM48.43 16V5.308H50.168V7.134C50.52 6.45933 51.0187 5.95333 51.664 5.616C52.3094 5.27867 53.0354 5.11 53.842 5.11C56.3794 5.11 57.648 6.518 57.648 9.334V16H55.866V9.444C55.866 8.44667 55.668 7.72067 55.272 7.266C54.8907 6.79667 54.2747 6.562 53.424 6.562C52.4414 6.562 51.6567 6.87 51.07 7.486C50.498 8.08733 50.212 8.894 50.212 9.906V16H48.43ZM61.374 16V0.489999H63.156V10.06H63.2L68.15 5.308H70.416L65.048 10.456L70.878 16H68.612L63.2 10.984H63.156V16H61.374ZM80.1363 19.96L81.9623 15.824L77.4523 5.308H79.3883L82.9303 13.976L86.4943 5.308H88.3643L82.0063 19.96H80.1363ZM94.9387 16.198C93.8974 16.198 92.9954 15.9707 92.2327 15.516C91.4701 15.0613 90.8761 14.4233 90.4507 13.602C90.0401 12.766 89.8347 11.7833 89.8347 10.654C89.8347 9.52467 90.0401 8.54933 90.4507 7.728C90.8761 6.892 91.4701 6.24667 92.2327 5.792C92.9954 5.33733 93.8974 5.11 94.9387 5.11C95.9654 5.11 96.8601 5.33733 97.6227 5.792C98.4001 6.24667 98.9941 6.892 99.4047 7.728C99.8301 8.54933 100.043 9.52467 100.043 10.654C100.043 11.7833 99.8301 12.766 99.4047 13.602C98.9941 14.4233 98.4001 15.0613 97.6227 15.516C96.8601 15.9707 95.9654 16.198 94.9387 16.198ZM94.9387 14.768C95.9361 14.768 96.7354 14.416 97.3367 13.712C97.9381 12.9933 98.2387 11.974 98.2387 10.654C98.2387 9.31933 97.9381 8.3 97.3367 7.596C96.7354 6.892 95.9361 6.54 94.9387 6.54C93.9267 6.54 93.1201 6.892 92.5187 7.596C91.9321 8.3 91.6387 9.31933 91.6387 10.654C91.6387 11.974 91.9321 12.9933 92.5187 13.712C93.1201 14.416 93.9267 14.768 94.9387 14.768ZM106.943 16.198C104.377 16.198 103.093 14.7827 103.093 11.952V5.308H104.875V11.93C104.875 12.8833 105.066 13.5873 105.447 14.042C105.843 14.4967 106.459 14.724 107.295 14.724C108.205 14.724 108.945 14.4233 109.517 13.822C110.089 13.206 110.375 12.392 110.375 11.38V5.308H112.157V16H110.419V14.196C110.082 14.8413 109.605 15.34 108.989 15.692C108.388 16.0293 107.706 16.198 106.943 16.198ZM125.63 16.198C124.794 16.198 124.002 16.0807 123.254 15.846C122.506 15.6113 121.89 15.2813 121.406 14.856L121.978 13.602C122.506 14.0273 123.085 14.3427 123.716 14.548C124.361 14.7387 125.014 14.834 125.674 14.834C126.51 14.834 127.14 14.68 127.566 14.372C127.991 14.064 128.204 13.646 128.204 13.118C128.204 12.7073 128.064 12.3847 127.786 12.15C127.507 11.9007 127.067 11.71 126.466 11.578L124.464 11.138C122.645 10.742 121.736 9.80333 121.736 8.322C121.736 7.354 122.117 6.57667 122.88 5.99C123.657 5.40333 124.669 5.11 125.916 5.11C126.649 5.11 127.346 5.22733 128.006 5.462C128.68 5.682 129.238 6.012 129.678 6.452L129.084 7.706C128.658 7.31 128.16 7.00933 127.588 6.804C127.03 6.584 126.473 6.474 125.916 6.474C125.094 6.474 124.471 6.63533 124.046 6.958C123.62 7.28067 123.408 7.706 123.408 8.234C123.408 9.05533 123.95 9.58333 125.036 9.818L127.038 10.236C127.976 10.4413 128.688 10.7713 129.172 11.226C129.656 11.666 129.898 12.2673 129.898 13.03C129.898 14.0127 129.509 14.79 128.732 15.362C127.954 15.9193 126.92 16.198 125.63 16.198ZM137.498 16.198C136.456 16.198 135.554 15.9707 134.792 15.516C134.029 15.0613 133.435 14.4233 133.01 13.602C132.599 12.766 132.394 11.7833 132.394 10.654C132.394 9.52467 132.599 8.54933 133.01 7.728C133.435 6.892 134.029 6.24667 134.792 5.792C135.554 5.33733 136.456 5.11 137.498 5.11C138.524 5.11 139.419 5.33733 140.182 5.792C140.959 6.24667 141.553 6.892 141.964 7.728C142.389 8.54933 142.602 9.52467 142.602 10.654C142.602 11.7833 142.389 12.766 141.964 13.602C141.553 14.4233 140.959 15.0613 140.182 15.516C139.419 15.9707 138.524 16.198 137.498 16.198ZM137.498 14.768C138.495 14.768 139.294 14.416 139.896 13.712C140.497 12.9933 140.798 11.974 140.798 10.654C140.798 9.31933 140.497 8.3 139.896 7.596C139.294 6.892 138.495 6.54 137.498 6.54C136.486 6.54 135.679 6.892 135.078 7.596C134.491 8.3 134.198 9.31933 134.198 10.654C134.198 11.974 134.491 12.9933 135.078 13.712C135.679 14.416 136.486 14.768 137.498 14.768ZM151.853 16V5.308H153.591V7.112C153.913 6.46667 154.361 5.97533 154.933 5.638C155.505 5.286 156.172 5.11 156.935 5.11C158.607 5.11 159.677 5.836 160.147 7.288C160.469 6.61333 160.946 6.08533 161.577 5.704C162.207 5.308 162.933 5.11 163.755 5.11C166.131 5.11 167.319 6.518 167.319 9.334V16H165.537V9.422C165.537 8.43933 165.361 7.72067 165.009 7.266C164.671 6.79667 164.107 6.562 163.315 6.562C162.449 6.562 161.76 6.87 161.247 7.486C160.733 8.102 160.477 8.92333 160.477 9.95V16H158.695V9.422C158.695 8.43933 158.519 7.72067 158.167 7.266C157.829 6.79667 157.265 6.562 156.473 6.562C155.593 6.562 154.896 6.87 154.383 7.486C153.884 8.102 153.635 8.92333 153.635 9.95V16H151.853ZM174.874 16.198C172.308 16.198 171.024 14.7827 171.024 11.952V5.308H172.806V11.93C172.806 12.8833 172.997 13.5873 173.378 14.042C173.774 14.4967 174.39 14.724 175.226 14.724C176.136 14.724 176.876 14.4233 177.448 13.822C178.02 13.206 178.306 12.392 178.306 11.38V5.308H180.088V16H178.35V14.196C178.013 14.8413 177.536 15.34 176.92 15.692C176.319 16.0293 175.637 16.198 174.874 16.198ZM188.394 16.198C187.324 16.198 186.4 15.9707 185.622 15.516C184.845 15.0467 184.244 14.394 183.818 13.558C183.408 12.7073 183.202 11.7173 183.202 10.588C183.202 8.88667 183.664 7.552 184.588 6.584C185.512 5.60133 186.781 5.11 188.394 5.11C189.054 5.11 189.707 5.22733 190.352 5.462C190.998 5.69667 191.533 6.02667 191.958 6.452L191.342 7.75C190.917 7.33933 190.448 7.03867 189.934 6.848C189.436 6.65733 188.959 6.562 188.504 6.562C187.39 6.562 186.532 6.914 185.93 7.618C185.329 8.30733 185.028 9.30467 185.028 10.61C185.028 11.886 185.329 12.898 185.93 13.646C186.532 14.3793 187.39 14.746 188.504 14.746C188.959 14.746 189.436 14.6507 189.934 14.46C190.448 14.2693 190.917 13.9613 191.342 13.536L191.958 14.834C191.533 15.2593 190.99 15.5967 190.33 15.846C189.685 16.0807 189.04 16.198 188.394 16.198ZM194.486 16V0.489999H196.268V7.068C196.62 6.42267 197.111 5.93867 197.742 5.616C198.387 5.27867 199.106 5.11 199.898 5.11C202.435 5.11 203.704 6.518 203.704 9.334V16H201.922V9.444C201.922 8.44667 201.724 7.72067 201.328 7.266C200.947 6.79667 200.331 6.562 199.48 6.562C198.497 6.562 197.713 6.87 197.126 7.486C196.554 8.08733 196.268 8.894 196.268 9.906V16H194.486ZM214.092 16V6.694H211.98V5.308H214.092V4.934C214.092 3.51133 214.444 2.43333 215.148 1.7C215.867 0.966666 216.967 0.555999 218.448 0.467999L219.306 0.424L219.46 1.788L218.448 1.854C217.539 1.92733 216.879 2.19867 216.468 2.668C216.072 3.13733 215.874 3.81933 215.874 4.714V5.308H218.954V6.694H215.874V16H214.092ZM225.43 16.198C224.388 16.198 223.486 15.9707 222.724 15.516C221.961 15.0613 221.367 14.4233 220.942 13.602C220.531 12.766 220.326 11.7833 220.326 10.654C220.326 9.52467 220.531 8.54933 220.942 7.728C221.367 6.892 221.961 6.24667 222.724 5.792C223.486 5.33733 224.388 5.11 225.43 5.11C226.456 5.11 227.351 5.33733 228.114 5.792C228.891 6.24667 229.485 6.892 229.896 7.728C230.321 8.54933 230.534 9.52467 230.534 10.654C230.534 11.7833 230.321 12.766 229.896 13.602C229.485 14.4233 228.891 15.0613 228.114 15.516C227.351 15.9707 226.456 16.198 225.43 16.198ZM225.43 14.768C226.427 14.768 227.226 14.416 227.828 13.712C228.429 12.9933 228.73 11.974 228.73 10.654C228.73 9.31933 228.429 8.3 227.828 7.596C227.226 6.892 226.427 6.54 225.43 6.54C224.418 6.54 223.611 6.892 223.01 7.596C222.423 8.3 222.13 9.31933 222.13 10.654C222.13 11.974 222.423 12.9933 223.01 13.712C223.611 14.416 224.418 14.768 225.43 14.768ZM233.65 16V5.308H235.388V7.222C235.96 5.93133 237.134 5.22 238.908 5.088L239.546 5.022L239.678 6.562L238.556 6.694C237.544 6.782 236.774 7.10467 236.246 7.662C235.718 8.20467 235.454 8.95267 235.454 9.906V16H233.65ZM249.297 19.96L251.123 15.824L246.613 5.308H248.549L252.091 13.976L255.655 5.308H257.525L251.167 19.96H249.297ZM264.1 16.198C263.058 16.198 262.156 15.9707 261.394 15.516C260.631 15.0613 260.037 14.4233 259.612 13.602C259.201 12.766 258.996 11.7833 258.996 10.654C258.996 9.52467 259.201 8.54933 259.612 7.728C260.037 6.892 260.631 6.24667 261.394 5.792C262.156 5.33733 263.058 5.11 264.1 5.11C265.126 5.11 266.021 5.33733 266.784 5.792C267.561 6.24667 268.155 6.892 268.566 7.728C268.991 8.54933 269.204 9.52467 269.204 10.654C269.204 11.7833 268.991 12.766 268.566 13.602C268.155 14.4233 267.561 15.0613 266.784 15.516C266.021 15.9707 265.126 16.198 264.1 16.198ZM264.1 14.768C265.097 14.768 265.896 14.416 266.498 13.712C267.099 12.9933 267.4 11.974 267.4 10.654C267.4 9.31933 267.099 8.3 266.498 7.596C265.896 6.892 265.097 6.54 264.1 6.54C263.088 6.54 262.281 6.892 261.68 7.596C261.093 8.3 260.8 9.31933 260.8 10.654C260.8 11.974 261.093 12.9933 261.68 13.712C262.281 14.416 263.088 14.768 264.1 14.768ZM276.104 16.198C273.538 16.198 272.254 14.7827 272.254 11.952V5.308H274.036V11.93C274.036 12.8833 274.227 13.5873 274.608 14.042C275.004 14.4967 275.62 14.724 276.456 14.724C277.366 14.724 278.106 14.4233 278.678 13.822C279.25 13.206 279.536 12.392 279.536 11.38V5.308H281.318V16H279.58V14.196C279.243 14.8413 278.766 15.34 278.15 15.692C277.549 16.0293 276.867 16.198 276.104 16.198ZM285.092 16V5.308H286.83V7.222C287.402 5.93133 288.576 5.22 290.35 5.088L290.988 5.022L291.12 6.562L289.998 6.694C288.986 6.782 288.216 7.10467 287.688 7.662C287.16 8.20467 286.896 8.95267 286.896 9.906V16H285.092ZM299.508 16V0.489999H301.29V7.068C301.642 6.42267 302.133 5.93867 302.764 5.616C303.409 5.27867 304.128 5.11 304.92 5.11C307.457 5.11 308.726 6.518 308.726 9.334V16H306.944V9.444C306.944 8.44667 306.746 7.72067 306.35 7.266C305.968 6.79667 305.352 6.562 304.502 6.562C303.519 6.562 302.734 6.87 302.148 7.486C301.576 8.08733 301.29 8.894 301.29 9.906V16H299.508ZM317.27 16.198C315.583 16.198 314.248 15.7067 313.266 14.724C312.283 13.7267 311.792 12.3773 311.792 10.676C311.792 9.576 312.012 8.608 312.452 7.772C312.892 6.92133 313.493 6.26867 314.256 5.814C315.033 5.34467 315.928 5.11 316.94 5.11C318.392 5.11 319.528 5.57933 320.35 6.518C321.171 7.442 321.582 8.718 321.582 10.346V11.028H313.53C313.588 12.2453 313.94 13.1767 314.586 13.822C315.231 14.4527 316.126 14.768 317.27 14.768C317.915 14.768 318.531 14.6727 319.118 14.482C319.704 14.2767 320.262 13.9467 320.79 13.492L321.406 14.746C320.922 15.2007 320.306 15.56 319.558 15.824C318.81 16.0733 318.047 16.198 317.27 16.198ZM316.984 6.43C315.972 6.43 315.172 6.74533 314.586 7.376C313.999 8.00667 313.654 8.83533 313.552 9.862H320.042C319.998 8.77667 319.712 7.93333 319.184 7.332C318.67 6.73067 317.937 6.43 316.984 6.43ZM327.879 16.198C326.793 16.198 325.972 15.8827 325.415 15.252C324.872 14.6067 324.601 13.6753 324.601 12.458V0.489999H326.383V12.326C326.383 13.8953 327.006 14.68 328.253 14.68C328.619 14.68 328.949 14.636 329.243 14.548L329.199 16.044C328.744 16.1467 328.304 16.198 327.879 16.198ZM331.55 19.96V5.308H333.288V7.222C333.611 6.562 334.088 6.04867 334.718 5.682C335.364 5.30067 336.112 5.11 336.962 5.11C337.916 5.11 338.744 5.33733 339.448 5.792C340.167 6.232 340.717 6.87 341.098 7.706C341.494 8.52733 341.692 9.51 341.692 10.654C341.692 11.7833 341.494 12.766 341.098 13.602C340.717 14.4233 340.167 15.0613 339.448 15.516C338.744 15.9707 337.916 16.198 336.962 16.198C336.141 16.198 335.408 16.0147 334.762 15.648C334.117 15.2813 333.64 14.7753 333.332 14.13V19.96H331.55ZM336.588 14.768C337.586 14.768 338.385 14.416 338.986 13.712C339.588 12.9933 339.888 11.974 339.888 10.654C339.888 9.31933 339.588 8.3 338.986 7.596C338.385 6.892 337.586 6.54 336.588 6.54C335.591 6.54 334.792 6.892 334.19 7.596C333.589 8.3 333.288 9.31933 333.288 10.654C333.288 11.974 333.589 12.9933 334.19 13.712C334.792 14.416 335.591 14.768 336.588 14.768ZM344.036 16V13.756H346.28V16H344.036ZM356.101 16V0.489999H357.905V16H356.101ZM366.217 16.198C364.956 16.198 364.01 15.868 363.379 15.208C362.749 14.5333 362.433 13.5653 362.433 12.304V6.694H360.343V5.308H362.433V2.03H364.215V5.308H367.603V6.694H364.215V12.128C364.215 12.964 364.391 13.602 364.743 14.042C365.095 14.4673 365.667 14.68 366.459 14.68C366.694 14.68 366.929 14.6507 367.163 14.592C367.398 14.5333 367.611 14.4747 367.801 14.416L368.109 15.78C367.919 15.8827 367.64 15.978 367.273 16.066C366.907 16.154 366.555 16.198 366.217 16.198ZM370.235 6.584L369.773 0.489999H371.863L371.445 6.584H370.235ZM378.962 16.198C378.126 16.198 377.334 16.0807 376.586 15.846C375.838 15.6113 375.222 15.2813 374.738 14.856L375.31 13.602C375.838 14.0273 376.418 14.3427 377.048 14.548C377.694 14.7387 378.346 14.834 379.006 14.834C379.842 14.834 380.473 14.68 380.898 14.372C381.324 14.064 381.536 13.646 381.536 13.118C381.536 12.7073 381.397 12.3847 381.118 12.15C380.84 11.9007 380.4 11.71 379.798 11.578L377.796 11.138C375.978 10.742 375.068 9.80333 375.068 8.322C375.068 7.354 375.45 6.57667 376.212 5.99C376.99 5.40333 378.002 5.11 379.248 5.11C379.982 5.11 380.678 5.22733 381.338 5.462C382.013 5.682 382.57 6.012 383.01 6.452L382.416 7.706C381.991 7.31 381.492 7.00933 380.92 6.804C380.363 6.584 379.806 6.474 379.248 6.474C378.427 6.474 377.804 6.63533 377.378 6.958C376.953 7.28067 376.74 7.706 376.74 8.234C376.74 9.05533 377.283 9.58333 378.368 9.818L380.37 10.236C381.309 10.4413 382.02 10.7713 382.504 11.226C382.988 11.666 383.23 12.2673 383.23 13.03C383.23 14.0127 382.842 14.79 382.064 15.362C381.287 15.9193 380.253 16.198 378.962 16.198ZM397.295 16.198C395.608 16.198 394.273 15.7067 393.291 14.724C392.308 13.7267 391.817 12.3773 391.817 10.676C391.817 9.576 392.037 8.608 392.477 7.772C392.917 6.92133 393.518 6.26867 394.281 5.814C395.058 5.34467 395.953 5.11 396.965 5.11C398.417 5.11 399.553 5.57933 400.375 6.518C401.196 7.442 401.607 8.718 401.607 10.346V11.028H393.555C393.613 12.2453 393.965 13.1767 394.611 13.822C395.256 14.4527 396.151 14.768 397.295 14.768C397.94 14.768 398.556 14.6727 399.143 14.482C399.729 14.2767 400.287 13.9467 400.815 13.492L401.431 14.746C400.947 15.2007 400.331 15.56 399.583 15.824C398.835 16.0733 398.072 16.198 397.295 16.198ZM397.009 6.43C395.997 6.43 395.197 6.74533 394.611 7.376C394.024 8.00667 393.679 8.83533 393.577 9.862H400.067C400.023 8.77667 399.737 7.93333 399.209 7.332C398.695 6.73067 397.962 6.43 397.009 6.43ZM403.176 16L407.62 10.478L403.44 5.308H405.552L408.654 9.246L411.778 5.308H413.868L409.688 10.478L414.132 16H412.02L408.632 11.754L405.288 16H403.176ZM419.818 16.198C419.085 16.198 418.425 16.0587 417.838 15.78C417.266 15.4867 416.812 15.0907 416.474 14.592C416.137 14.0933 415.968 13.536 415.968 12.92C415.968 12.1427 416.166 11.5267 416.562 11.072C416.973 10.6173 417.64 10.2947 418.564 10.104C419.503 9.89867 420.779 9.796 422.392 9.796H423.096V9.114C423.096 8.20467 422.906 7.552 422.524 7.156C422.158 6.74533 421.564 6.54 420.742 6.54C420.097 6.54 419.474 6.63533 418.872 6.826C418.271 7.002 417.655 7.29533 417.024 7.706L416.408 6.408C416.966 6.012 417.64 5.69667 418.432 5.462C419.239 5.22733 420.009 5.11 420.742 5.11C422.121 5.11 423.14 5.44733 423.8 6.122C424.475 6.79667 424.812 7.84533 424.812 9.268V16H423.14V14.152C422.862 14.7827 422.429 15.2813 421.842 15.648C421.27 16.0147 420.596 16.198 419.818 16.198ZM420.104 14.856C420.984 14.856 421.703 14.5553 422.26 13.954C422.818 13.338 423.096 12.5607 423.096 11.622V10.962H422.414C421.226 10.962 420.288 11.0207 419.598 11.138C418.924 11.2407 418.447 11.4313 418.168 11.71C417.904 11.974 417.772 12.3407 417.772 12.81C417.772 13.4113 417.978 13.9027 418.388 14.284C418.814 14.6653 419.386 14.856 420.104 14.856ZM433.09 16.198C432.02 16.198 431.096 15.9707 430.318 15.516C429.541 15.0467 428.94 14.394 428.514 13.558C428.104 12.7073 427.898 11.7173 427.898 10.588C427.898 8.88667 428.36 7.552 429.284 6.584C430.208 5.60133 431.477 5.11 433.09 5.11C433.75 5.11 434.403 5.22733 435.048 5.462C435.694 5.69667 436.229 6.02667 436.654 6.452L436.038 7.75C435.613 7.33933 435.144 7.03867 434.63 6.848C434.132 6.65733 433.655 6.562 433.2 6.562C432.086 6.562 431.228 6.914 430.626 7.618C430.025 8.30733 429.724 9.30467 429.724 10.61C429.724 11.886 430.025 12.898 430.626 13.646C431.228 14.3793 432.086 14.746 433.2 14.746C433.655 14.746 434.132 14.6507 434.63 14.46C435.144 14.2693 435.613 13.9613 436.038 13.536L436.654 14.834C436.229 15.2593 435.686 15.5967 435.026 15.846C434.381 16.0807 433.736 16.198 433.09 16.198ZM443.472 16.198C442.211 16.198 441.265 15.868 440.634 15.208C440.003 14.5333 439.688 13.5653 439.688 12.304V6.694H437.598V5.308H439.688V2.03H441.47V5.308H444.858V6.694H441.47V12.128C441.47 12.964 441.646 13.602 441.998 14.042C442.35 14.4673 442.922 14.68 443.714 14.68C443.949 14.68 444.183 14.6507 444.418 14.592C444.653 14.5333 444.865 14.4747 445.056 14.416L445.364 15.78C445.173 15.8827 444.895 15.978 444.528 16.066C444.161 16.154 443.809 16.198 443.472 16.198ZM450.591 16.198C449.506 16.198 448.685 15.8827 448.127 15.252C447.585 14.6067 447.313 13.6753 447.313 12.458V0.489999H449.095V12.326C449.095 13.8953 449.719 14.68 450.965 14.68C451.332 14.68 451.662 14.636 451.955 14.548L451.911 16.044C451.457 16.1467 451.017 16.198 450.591 16.198ZM455.259 19.96L457.085 15.824L452.575 5.308H454.511L458.053 13.976L461.617 5.308H463.487L457.129 19.96H455.259ZM474.696 16L470.714 5.308H472.584L475.598 13.91L478.722 5.308H480.24L483.32 13.932L486.378 5.308H488.16L484.156 16H482.462L479.448 7.706L476.412 16H474.696ZM490.796 16V0.489999H492.578V7.068C492.93 6.42267 493.421 5.93867 494.052 5.616C494.697 5.27867 495.416 5.11 496.208 5.11C498.745 5.11 500.014 6.518 500.014 9.334V16H498.232V9.444C498.232 8.44667 498.034 7.72067 497.638 7.266C497.257 6.79667 496.641 6.562 495.79 6.562C494.807 6.562 494.023 6.87 493.436 7.486C492.864 8.08733 492.578 8.894 492.578 9.906V16H490.796ZM507.106 16.198C506.372 16.198 505.712 16.0587 505.126 15.78C504.554 15.4867 504.099 15.0907 503.762 14.592C503.424 14.0933 503.256 13.536 503.256 12.92C503.256 12.1427 503.454 11.5267 503.85 11.072C504.26 10.6173 504.928 10.2947 505.852 10.104C506.79 9.89867 508.066 9.796 509.68 9.796H510.384V9.114C510.384 8.20467 510.193 7.552 509.812 7.156C509.445 6.74533 508.851 6.54 508.03 6.54C507.384 6.54 506.761 6.63533 506.16 6.826C505.558 7.002 504.942 7.29533 504.312 7.706L503.696 6.408C504.253 6.012 504.928 5.69667 505.72 5.462C506.526 5.22733 507.296 5.11 508.03 5.11C509.408 5.11 510.428 5.44733 511.088 6.122C511.762 6.79667 512.1 7.84533 512.1 9.268V16H510.428V14.152C510.149 14.7827 509.716 15.2813 509.13 15.648C508.558 16.0147 507.883 16.198 507.106 16.198ZM507.392 14.856C508.272 14.856 508.99 14.5553 509.548 13.954C510.105 13.338 510.384 12.5607 510.384 11.622V10.962H509.702C508.514 10.962 507.575 11.0207 506.886 11.138C506.211 11.2407 505.734 11.4313 505.456 11.71C505.192 11.974 505.06 12.3407 505.06 12.81C505.06 13.4113 505.265 13.9027 505.676 14.284C506.101 14.6653 506.673 14.856 507.392 14.856ZM520.136 16.198C518.874 16.198 517.928 15.868 517.298 15.208C516.667 14.5333 516.352 13.5653 516.352 12.304V6.694H514.262V5.308H516.352V2.03H518.134V5.308H521.522V6.694H518.134V12.128C518.134 12.964 518.31 13.602 518.662 14.042C519.014 14.4673 519.586 14.68 520.378 14.68C520.612 14.68 520.847 14.6507 521.082 14.592C521.316 14.5333 521.529 14.4747 521.72 14.416L522.028 15.78C521.837 15.8827 521.558 15.978 521.192 16.066C520.825 16.154 520.473 16.198 520.136 16.198ZM0.914 56V40.49H2.718V56H0.914ZM6.91691 46.584L6.45491 40.49H8.54491L8.12691 46.584H6.91691ZM15.1824 56L10.5844 45.308H12.5204L16.0624 53.976L19.6484 45.308H21.4744L16.8544 56H15.1824ZM28.4663 56.198C26.7796 56.198 25.4449 55.7067 24.4622 54.724C23.4796 53.7267 22.9882 52.3773 22.9882 50.676C22.9882 49.576 23.2082 48.608 23.6482 47.772C24.0882 46.9213 24.6896 46.2687 25.4522 45.814C26.2296 45.3447 27.1242 45.11 28.1362 45.11C29.5882 45.11 30.7249 45.5793 31.5463 46.518C32.3676 47.442 32.7783 48.718 32.7783 50.346V51.028H24.7262C24.7849 52.2453 25.1369 53.1767 25.7822 53.822C26.4276 54.4527 27.3222 54.768 28.4663 54.768C29.1116 54.768 29.7276 54.6727 30.3142 54.482C30.9009 54.2767 31.4583 53.9467 31.9862 53.492L32.6022 54.746C32.1183 55.2007 31.5023 55.56 30.7543 55.824C30.0063 56.0733 29.2436 56.198 28.4663 56.198ZM28.1802 46.43C27.1682 46.43 26.3689 46.7453 25.7822 47.376C25.1956 48.0067 24.8509 48.8353 24.7482 49.862H31.2383C31.1943 48.7767 30.9083 47.9333 30.3803 47.332C29.8669 46.7307 29.1336 46.43 28.1802 46.43ZM47.2996 56.198C46.449 56.198 45.701 56.0073 45.0556 55.626C44.425 55.2447 43.9483 54.724 43.6256 54.064V56H41.8876V40.49H43.6696V47.156C43.9776 46.5253 44.4543 46.0267 45.0996 45.66C45.745 45.2933 46.4783 45.11 47.2996 45.11C48.253 45.11 49.0816 45.3373 49.7856 45.792C50.5043 46.232 51.0543 46.87 51.4356 47.706C51.8316 48.5273 52.0296 49.51 52.0296 50.654C52.0296 51.7833 51.8316 52.766 51.4356 53.602C51.0543 54.4233 50.5043 55.0613 49.7856 55.516C49.0816 55.9707 48.253 56.198 47.2996 56.198ZM46.9256 54.768C47.923 54.768 48.7223 54.416 49.3236 53.712C49.925 52.9933 50.2256 51.974 50.2256 50.654C50.2256 49.3193 49.925 48.3 49.3236 47.596C48.7223 46.892 47.923 46.54 46.9256 46.54C45.9283 46.54 45.129 46.892 44.5276 47.596C43.9263 48.3 43.6256 49.3193 43.6256 50.654C43.6256 51.974 43.9263 52.9933 44.5276 53.712C45.129 54.416 45.9283 54.768 46.9256 54.768ZM59.9718 56.198C58.2851 56.198 56.9505 55.7067 55.9678 54.724C54.9851 53.7267 54.4938 52.3773 54.4938 50.676C54.4938 49.576 54.7138 48.608 55.1538 47.772C55.5938 46.9213 56.1951 46.2687 56.9578 45.814C57.7351 45.3447 58.6298 45.11 59.6418 45.11C61.0938 45.11 62.2305 45.5793 63.0518 46.518C63.8731 47.442 64.2838 48.718 64.2838 50.346V51.028H56.2318C56.2905 52.2453 56.6425 53.1767 57.2878 53.822C57.9331 54.4527 58.8278 54.768 59.9718 54.768C60.6171 54.768 61.2331 54.6727 61.8198 54.482C62.4065 54.2767 62.9638 53.9467 63.4918 53.492L64.1078 54.746C63.6238 55.2007 63.0078 55.56 62.2598 55.824C61.5118 56.0733 60.7491 56.198 59.9718 56.198ZM59.6858 46.43C58.6738 46.43 57.8745 46.7453 57.2878 47.376C56.7011 48.0067 56.3565 48.8353 56.2538 49.862H62.7438C62.6998 48.7767 62.4138 47.9333 61.8858 47.332C61.3725 46.7307 60.6391 46.43 59.6858 46.43ZM72.1208 56.198C70.4341 56.198 69.0994 55.7067 68.1168 54.724C67.1341 53.7267 66.6428 52.3773 66.6428 50.676C66.6428 49.576 66.8628 48.608 67.3028 47.772C67.7428 46.9213 68.3441 46.2687 69.1068 45.814C69.8841 45.3447 70.7788 45.11 71.7908 45.11C73.2428 45.11 74.3795 45.5793 75.2008 46.518C76.0221 47.442 76.4328 48.718 76.4328 50.346V51.028H68.3808C68.4394 52.2453 68.7914 53.1767 69.4368 53.822C70.0821 54.4527 70.9768 54.768 72.1208 54.768C72.7661 54.768 73.3821 54.6727 73.9688 54.482C74.5555 54.2767 75.1128 53.9467 75.6408 53.492L76.2568 54.746C75.7728 55.2007 75.1568 55.56 74.4088 55.824C73.6608 56.0733 72.8981 56.198 72.1208 56.198ZM71.8348 46.43C70.8228 46.43 70.0235 46.7453 69.4368 47.376C68.8501 48.0067 68.5054 48.8353 68.4028 49.862H74.8928C74.8488 48.7767 74.5628 47.9333 74.0348 47.332C73.5215 46.7307 72.7881 46.43 71.8348 46.43ZM79.4518 56V45.308H81.1898V47.134C81.5418 46.4593 82.0404 45.9533 82.6858 45.616C83.3311 45.2787 84.0571 45.11 84.8638 45.11C87.4011 45.11 88.6698 46.518 88.6698 49.334V56H86.8878V49.444C86.8878 48.4467 86.6898 47.7207 86.2938 47.266C85.9124 46.7967 85.2964 46.562 84.4458 46.562C83.4631 46.562 82.6784 46.87 82.0918 47.486C81.5198 48.0873 81.2338 48.894 81.2338 49.906V56H79.4518ZM101.764 56.198C100.679 56.198 99.8574 55.8827 99.3001 55.252C98.7574 54.6067 98.4861 53.6753 98.4861 52.458V40.49H100.268V52.326C100.268 53.8953 100.891 54.68 102.138 54.68C102.505 54.68 102.835 54.636 103.128 54.548L103.084 56.044C102.629 56.1467 102.189 56.198 101.764 56.198ZM109.772 56.198C108.731 56.198 107.829 55.9707 107.066 55.516C106.304 55.0613 105.71 54.4233 105.284 53.602C104.874 52.766 104.668 51.7833 104.668 50.654C104.668 49.5247 104.874 48.5493 105.284 47.728C105.71 46.892 106.304 46.2467 107.066 45.792C107.829 45.3373 108.731 45.11 109.772 45.11C110.799 45.11 111.694 45.3373 112.456 45.792C113.234 46.2467 113.828 46.892 114.238 47.728C114.664 48.5493 114.876 49.5247 114.876 50.654C114.876 51.7833 114.664 52.766 114.238 53.602C113.828 54.4233 113.234 55.0613 112.456 55.516C111.694 55.9707 110.799 56.198 109.772 56.198ZM109.772 54.768C110.77 54.768 111.569 54.416 112.17 53.712C112.772 52.9933 113.072 51.974 113.072 50.654C113.072 49.3193 112.772 48.3 112.17 47.596C111.569 46.892 110.77 46.54 109.772 46.54C108.76 46.54 107.954 46.892 107.352 47.596C106.766 48.3 106.472 49.3193 106.472 50.654C106.472 51.974 106.766 52.9933 107.352 53.712C107.954 54.416 108.76 54.768 109.772 54.768ZM122.437 56.198C121.396 56.198 120.494 55.9707 119.731 55.516C118.968 55.0613 118.374 54.4233 117.949 53.602C117.538 52.766 117.333 51.7833 117.333 50.654C117.333 49.5247 117.538 48.5493 117.949 47.728C118.374 46.892 118.968 46.2467 119.731 45.792C120.494 45.3373 121.396 45.11 122.437 45.11C123.464 45.11 124.358 45.3373 125.121 45.792C125.898 46.2467 126.492 46.892 126.903 47.728C127.328 48.5493 127.541 49.5247 127.541 50.654C127.541 51.7833 127.328 52.766 126.903 53.602C126.492 54.4233 125.898 55.0613 125.121 55.516C124.358 55.9707 123.464 56.198 122.437 56.198ZM122.437 54.768C123.434 54.768 124.234 54.416 124.835 53.712C125.436 52.9933 125.737 51.974 125.737 50.654C125.737 49.3193 125.436 48.3 124.835 47.596C124.234 46.892 123.434 46.54 122.437 46.54C121.425 46.54 120.618 46.892 120.017 47.596C119.43 48.3 119.137 49.3193 119.137 50.654C119.137 51.974 119.43 52.9933 120.017 53.712C120.618 54.416 121.425 54.768 122.437 54.768ZM130.658 56V40.49H132.44V50.06H132.484L137.434 45.308H139.7L134.332 50.456L140.162 56H137.896L132.484 50.984H132.44V56H130.658ZM141.878 42.646V40.644H144.078V42.646H141.878ZM142.098 56V45.308H143.88V56H142.098ZM147.651 56V45.308H149.389V47.134C149.741 46.4593 150.24 45.9533 150.885 45.616C151.53 45.2787 152.256 45.11 153.063 45.11C155.6 45.11 156.869 46.518 156.869 49.334V56H155.087V49.444C155.087 48.4467 154.889 47.7207 154.493 47.266C154.112 46.7967 153.496 46.562 152.645 46.562C151.662 46.562 150.878 46.87 150.291 47.486C149.719 48.0873 149.433 48.894 149.433 49.906V56H147.651ZM165.325 60.158C164.401 60.158 163.528 60.0333 162.707 59.784C161.9 59.5493 161.181 59.19 160.551 58.706L161.145 57.408C161.805 57.8773 162.457 58.2147 163.103 58.42C163.763 58.6253 164.474 58.728 165.237 58.728C167.349 58.728 168.405 57.6427 168.405 55.472V53.58C168.097 54.2547 167.613 54.79 166.953 55.186C166.307 55.5673 165.567 55.758 164.731 55.758C163.748 55.758 162.897 55.5307 162.179 55.076C161.46 54.6213 160.903 53.998 160.507 53.206C160.125 52.3993 159.935 51.468 159.935 50.412C159.935 49.356 160.125 48.432 160.507 47.64C160.903 46.8333 161.46 46.21 162.179 45.77C162.897 45.33 163.748 45.11 164.731 45.11C165.567 45.11 166.307 45.3007 166.953 45.682C167.613 46.0633 168.097 46.584 168.405 47.244V45.308H170.143V55.23C170.143 56.8727 169.732 58.1047 168.911 58.926C168.104 59.7473 166.909 60.158 165.325 60.158ZM165.061 54.306C166.087 54.306 166.901 53.954 167.503 53.25C168.104 52.546 168.405 51.6 168.405 50.412C168.405 49.224 168.104 48.2853 167.503 47.596C166.901 46.892 166.087 46.54 165.061 46.54C164.049 46.54 163.242 46.892 162.641 47.596C162.039 48.2853 161.739 49.224 161.739 50.412C161.739 51.6 162.039 52.546 162.641 53.25C163.242 53.954 164.049 54.306 165.061 54.306ZM180.588 56V46.694H178.476V45.308H180.588V44.934C180.588 43.5113 180.94 42.4333 181.644 41.7C182.362 40.9667 183.462 40.556 184.944 40.468L185.802 40.424L185.956 41.788L184.944 41.854C184.034 41.9273 183.374 42.1987 182.964 42.668C182.568 43.1373 182.37 43.8193 182.37 44.714V45.308H185.45V46.694H182.37V56H180.588ZM191.925 56.198C190.884 56.198 189.982 55.9707 189.219 55.516C188.457 55.0613 187.863 54.4233 187.437 53.602C187.027 52.766 186.821 51.7833 186.821 50.654C186.821 49.5247 187.027 48.5493 187.437 47.728C187.863 46.892 188.457 46.2467 189.219 45.792C189.982 45.3373 190.884 45.11 191.925 45.11C192.952 45.11 193.847 45.3373 194.609 45.792C195.387 46.2467 195.981 46.892 196.391 47.728C196.817 48.5493 197.029 49.5247 197.029 50.654C197.029 51.7833 196.817 52.766 196.391 53.602C195.981 54.4233 195.387 55.0613 194.609 55.516C193.847 55.9707 192.952 56.198 191.925 56.198ZM191.925 54.768C192.923 54.768 193.722 54.416 194.323 53.712C194.925 52.9933 195.225 51.974 195.225 50.654C195.225 49.3193 194.925 48.3 194.323 47.596C193.722 46.892 192.923 46.54 191.925 46.54C190.913 46.54 190.107 46.892 189.505 47.596C188.919 48.3 188.625 49.3193 188.625 50.654C188.625 51.974 188.919 52.9933 189.505 53.712C190.107 54.416 190.913 54.768 191.925 54.768ZM200.146 56V45.308H201.884V47.222C202.456 45.9313 203.629 45.22 205.404 45.088L206.042 45.022L206.174 46.562L205.052 46.694C204.04 46.782 203.27 47.1047 202.742 47.662C202.214 48.2047 201.95 48.9527 201.95 49.906V56H200.146ZM207.712 56V53.756H209.956V56H207.712ZM223.516 56V48.652L217.576 40.49H219.688L224.462 47.068L229.214 40.49H231.26L225.32 48.696V56H223.516ZM235.783 56.198C234.742 56.198 233.84 55.9707 233.077 55.516C232.315 55.0613 231.721 54.4233 231.295 53.602C230.885 52.766 230.679 51.7833 230.679 50.654C230.679 49.5247 230.885 48.5493 231.295 47.728C231.721 46.892 232.315 46.2467 233.077 45.792C233.84 45.3373 234.742 45.11 235.783 45.11C236.81 45.11 237.705 45.3373 238.467 45.792C239.245 46.2467 239.839 46.892 240.249 47.728C240.675 48.5493 240.887 49.5247 240.887 50.654C240.887 51.7833 240.675 52.766 240.249 53.602C239.839 54.4233 239.245 55.0613 238.467 55.516C237.705 55.9707 236.81 56.198 235.783 56.198ZM235.783 54.768C236.781 54.768 237.58 54.416 238.181 53.712C238.783 52.9933 239.083 51.974 239.083 50.654C239.083 49.3193 238.783 48.3 238.181 47.596C237.58 46.892 236.781 46.54 235.783 46.54C234.771 46.54 233.965 46.892 233.363 47.596C232.777 48.3 232.483 49.3193 232.483 50.654C232.483 51.974 232.777 52.9933 233.363 53.712C233.965 54.416 234.771 54.768 235.783 54.768ZM247.788 56.198C245.221 56.198 243.938 54.7827 243.938 51.952V45.308H245.72V51.93C245.72 52.8833 245.911 53.5873 246.292 54.042C246.688 54.4967 247.304 54.724 248.14 54.724C249.049 54.724 249.79 54.4233 250.362 53.822C250.934 53.206 251.22 52.392 251.22 51.38V45.308H253.002V56H251.264V54.196C250.927 54.8413 250.45 55.34 249.834 55.692C249.233 56.0293 248.551 56.198 247.788 56.198ZM265.704 56L261.722 45.308H263.592L266.606 53.91L269.73 45.308H271.248L274.328 53.932L277.386 45.308H279.168L275.164 56H273.47L270.456 47.706L267.42 56H265.704ZM286.098 56.198C285.057 56.198 284.155 55.9707 283.392 55.516C282.629 55.0613 282.035 54.4233 281.61 53.602C281.199 52.766 280.994 51.7833 280.994 50.654C280.994 49.5247 281.199 48.5493 281.61 47.728C282.035 46.892 282.629 46.2467 283.392 45.792C284.155 45.3373 285.057 45.11 286.098 45.11C287.125 45.11 288.019 45.3373 288.782 45.792C289.559 46.2467 290.153 46.892 290.564 47.728C290.989 48.5493 291.202 49.5247 291.202 50.654C291.202 51.7833 290.989 52.766 290.564 53.602C290.153 54.4233 289.559 55.0613 288.782 55.516C288.019 55.9707 287.125 56.198 286.098 56.198ZM286.098 54.768C287.095 54.768 287.895 54.416 288.496 53.712C289.097 52.9933 289.398 51.974 289.398 50.654C289.398 49.3193 289.097 48.3 288.496 47.596C287.895 46.892 287.095 46.54 286.098 46.54C285.086 46.54 284.279 46.892 283.678 47.596C283.091 48.3 282.798 49.3193 282.798 50.654C282.798 51.974 283.091 52.9933 283.678 53.712C284.279 54.416 285.086 54.768 286.098 54.768ZM294.319 56V45.308H296.057V47.134C296.409 46.4593 296.907 45.9533 297.553 45.616C298.198 45.2787 298.924 45.11 299.731 45.11C302.268 45.11 303.537 46.518 303.537 49.334V56H301.755V49.444C301.755 48.4467 301.557 47.7207 301.161 47.266C300.779 46.7967 300.163 46.562 299.313 46.562C298.33 46.562 297.545 46.87 296.959 47.486C296.387 48.0873 296.101 48.894 296.101 49.906V56H294.319ZM307.439 46.584L306.977 40.49H309.067L308.649 46.584H307.439ZM316.848 56.198C315.587 56.198 314.641 55.868 314.01 55.208C313.379 54.5333 313.064 53.5653 313.064 52.304V46.694H310.974V45.308H313.064V42.03H314.846V45.308H318.234V46.694H314.846V52.128C314.846 52.964 315.022 53.602 315.374 54.042C315.726 54.4673 316.298 54.68 317.09 54.68C317.325 54.68 317.559 54.6507 317.794 54.592C318.029 54.5333 318.241 54.4747 318.432 54.416L318.74 55.78C318.549 55.8827 318.271 55.978 317.904 56.066C317.537 56.154 317.185 56.198 316.848 56.198ZM326.78 56V45.308H328.518V47.222C329.09 45.9313 330.263 45.22 332.038 45.088L332.676 45.022L332.808 46.562L331.686 46.694C330.674 46.782 329.904 47.1047 329.376 47.662C328.848 48.2047 328.584 48.9527 328.584 49.906V56H326.78ZM339.794 56.198C338.107 56.198 336.772 55.7067 335.79 54.724C334.807 53.7267 334.316 52.3773 334.316 50.676C334.316 49.576 334.536 48.608 334.976 47.772C335.416 46.9213 336.017 46.2687 336.78 45.814C337.557 45.3447 338.452 45.11 339.464 45.11C340.916 45.11 342.052 45.5793 342.874 46.518C343.695 47.442 344.106 48.718 344.106 50.346V51.028H336.054C336.112 52.2453 336.464 53.1767 337.11 53.822C337.755 54.4527 338.65 54.768 339.794 54.768C340.439 54.768 341.055 54.6727 341.642 54.482C342.228 54.2767 342.786 53.9467 343.314 53.492L343.93 54.746C343.446 55.2007 342.83 55.56 342.082 55.824C341.334 56.0733 340.571 56.198 339.794 56.198ZM339.508 46.43C338.496 46.43 337.696 46.7453 337.11 47.376C336.523 48.0067 336.178 48.8353 336.076 49.862H342.566C342.522 48.7767 342.236 47.9333 341.708 47.332C341.194 46.7307 340.461 46.43 339.508 46.43ZM351.855 60.158C350.931 60.158 350.058 60.0333 349.237 59.784C348.43 59.5493 347.711 59.19 347.081 58.706L347.675 57.408C348.335 57.8773 348.987 58.2147 349.633 58.42C350.293 58.6253 351.004 58.728 351.767 58.728C353.879 58.728 354.935 57.6427 354.935 55.472V53.58C354.627 54.2547 354.143 54.79 353.483 55.186C352.837 55.5673 352.097 55.758 351.261 55.758C350.278 55.758 349.427 55.5307 348.709 55.076C347.99 54.6213 347.433 53.998 347.037 53.206C346.655 52.3993 346.465 51.468 346.465 50.412C346.465 49.356 346.655 48.432 347.037 47.64C347.433 46.8333 347.99 46.21 348.709 45.77C349.427 45.33 350.278 45.11 351.261 45.11C352.097 45.11 352.837 45.3007 353.483 45.682C354.143 46.0633 354.627 46.584 354.935 47.244V45.308H356.673V55.23C356.673 56.8727 356.262 58.1047 355.441 58.926C354.634 59.7473 353.439 60.158 351.855 60.158ZM351.591 54.306C352.617 54.306 353.431 53.954 354.033 53.25C354.634 52.546 354.935 51.6 354.935 50.412C354.935 49.224 354.634 48.2853 354.033 47.596C353.431 46.892 352.617 46.54 351.591 46.54C350.579 46.54 349.772 46.892 349.171 47.596C348.569 48.2853 348.269 49.224 348.269 50.412C348.269 51.6 348.569 52.546 349.171 53.25C349.772 53.954 350.579 54.306 351.591 54.306ZM360.455 56V45.308H362.193V47.222C362.765 45.9313 363.939 45.22 365.713 45.088L366.351 45.022L366.483 46.562L365.361 46.694C364.349 46.782 363.579 47.1047 363.051 47.662C362.523 48.2047 362.259 48.9527 362.259 49.906V56H360.455ZM373.469 56.198C371.783 56.198 370.448 55.7067 369.465 54.724C368.483 53.7267 367.991 52.3773 367.991 50.676C367.991 49.576 368.211 48.608 368.651 47.772C369.091 46.9213 369.693 46.2687 370.455 45.814C371.233 45.3447 372.127 45.11 373.139 45.11C374.591 45.11 375.728 45.5793 376.549 46.518C377.371 47.442 377.781 48.718 377.781 50.346V51.028H369.729C369.788 52.2453 370.14 53.1767 370.785 53.822C371.431 54.4527 372.325 54.768 373.469 54.768C374.115 54.768 374.731 54.6727 375.317 54.482C375.904 54.2767 376.461 53.9467 376.989 53.492L377.605 54.746C377.121 55.2007 376.505 55.56 375.757 55.824C375.009 56.0733 374.247 56.198 373.469 56.198ZM373.183 46.43C372.171 46.43 371.372 46.7453 370.785 47.376C370.199 48.0067 369.854 48.8353 369.751 49.862H376.241C376.197 48.7767 375.911 47.9333 375.383 47.332C374.87 46.7307 374.137 46.43 373.183 46.43ZM385.09 56.198C383.829 56.198 382.883 55.868 382.252 55.208C381.622 54.5333 381.306 53.5653 381.306 52.304V46.694H379.216V45.308H381.306V42.03H383.088V45.308H386.476V46.694H383.088V52.128C383.088 52.964 383.264 53.602 383.616 54.042C383.968 54.4673 384.54 54.68 385.332 54.68C385.567 54.68 385.802 54.6507 386.036 54.592C386.271 54.5333 386.484 54.4747 386.674 54.416L386.982 55.78C386.792 55.8827 386.513 55.978 386.146 56.066C385.78 56.154 385.428 56.198 385.09 56.198ZM394.802 42.646V40.644H397.002V42.646H394.802ZM395.022 56V45.308H396.804V56H395.022ZM404.865 56.198C403.604 56.198 402.658 55.868 402.027 55.208C401.397 54.5333 401.081 53.5653 401.081 52.304V46.694H398.991V45.308H401.081V42.03H402.863V45.308H406.251V46.694H402.863V52.128C402.863 52.964 403.039 53.602 403.391 54.042C403.743 54.4673 404.315 54.68 405.107 54.68C405.342 54.68 405.577 54.6507 405.811 54.592C406.046 54.5333 406.259 54.4747 406.449 54.416L406.757 55.78C406.567 55.8827 406.288 55.978 405.921 56.066C405.555 56.154 405.203 56.198 404.865 56.198ZM408.721 56V53.756H410.965V56H408.721ZM420.786 56V40.49H422.59V56H420.786ZM430.903 56.198C429.641 56.198 428.695 55.868 428.065 55.208C427.434 54.5333 427.119 53.5653 427.119 52.304V46.694H425.029V45.308H427.119V42.03H428.901V45.308H432.289V46.694H428.901V52.128C428.901 52.964 429.077 53.602 429.429 54.042C429.781 54.4673 430.353 54.68 431.145 54.68C431.379 54.68 431.614 54.6507 431.849 54.592C432.083 54.5333 432.296 54.4747 432.487 54.416L432.795 55.78C432.604 55.8827 432.325 55.978 431.959 56.066C431.592 56.154 431.24 56.198 430.903 56.198ZM440.834 56V45.308H442.572V47.222C443.144 45.9313 444.318 45.22 446.092 45.088L446.73 45.022L446.862 46.562L445.74 46.694C444.728 46.782 443.958 47.1047 443.43 47.662C442.902 48.2047 442.638 48.9527 442.638 49.906V56H440.834ZM453.848 56.198C452.162 56.198 450.827 55.7067 449.844 54.724C448.862 53.7267 448.37 52.3773 448.37 50.676C448.37 49.576 448.59 48.608 449.03 47.772C449.47 46.9213 450.072 46.2687 450.834 45.814C451.612 45.3447 452.506 45.11 453.518 45.11C454.97 45.11 456.107 45.5793 456.928 46.518C457.75 47.442 458.16 48.718 458.16 50.346V51.028H450.108C450.167 52.2453 450.519 53.1767 451.164 53.822C451.81 54.4527 452.704 54.768 453.848 54.768C454.494 54.768 455.11 54.6727 455.696 54.482C456.283 54.2767 456.84 53.9467 457.368 53.492L457.984 54.746C457.5 55.2007 456.884 55.56 456.136 55.824C455.388 56.0733 454.626 56.198 453.848 56.198ZM453.562 46.43C452.55 46.43 451.751 46.7453 451.164 47.376C450.578 48.0067 450.233 48.8353 450.13 49.862H456.62C456.576 48.7767 456.29 47.9333 455.762 47.332C455.249 46.7307 454.516 46.43 453.562 46.43ZM464.545 56.198C463.812 56.198 463.152 56.0587 462.565 55.78C461.993 55.4867 461.539 55.0907 461.201 54.592C460.864 54.0933 460.695 53.536 460.695 52.92C460.695 52.1427 460.893 51.5267 461.289 51.072C461.7 50.6173 462.367 50.2947 463.291 50.104C464.23 49.8987 465.506 49.796 467.119 49.796H467.823V49.114C467.823 48.2047 467.633 47.552 467.251 47.156C466.885 46.7453 466.291 46.54 465.469 46.54C464.824 46.54 464.201 46.6353 463.599 46.826C462.998 47.002 462.382 47.2953 461.751 47.706L461.135 46.408C461.693 46.012 462.367 45.6967 463.159 45.462C463.966 45.2273 464.736 45.11 465.469 45.11C466.848 45.11 467.867 45.4473 468.527 46.122C469.202 46.7967 469.539 47.8453 469.539 49.268V56H467.867V54.152C467.589 54.7827 467.156 55.2813 466.569 55.648C465.997 56.0147 465.323 56.198 464.545 56.198ZM464.831 54.856C465.711 54.856 466.43 54.5553 466.987 53.954C467.545 53.338 467.823 52.5607 467.823 51.622V50.962H467.141C465.953 50.962 465.015 51.0207 464.325 51.138C463.651 51.2407 463.174 51.4313 462.895 51.71C462.631 51.974 462.499 52.3407 462.499 52.81C462.499 53.4113 462.705 53.9027 463.115 54.284C463.541 54.6653 464.113 54.856 464.831 54.856ZM476.563 56.198C475.478 56.198 474.657 55.8827 474.099 55.252C473.557 54.6067 473.285 53.6753 473.285 52.458V40.49H475.067V52.326C475.067 53.8953 475.691 54.68 476.937 54.68C477.304 54.68 477.634 54.636 477.927 54.548L477.883 56.044C477.429 56.1467 476.989 56.198 476.563 56.198ZM483.513 56.198C482.428 56.198 481.606 55.8827 481.049 55.252C480.506 54.6067 480.235 53.6753 480.235 52.458V40.49H482.017V52.326C482.017 53.8953 482.64 54.68 483.887 54.68C484.254 54.68 484.584 54.636 484.877 54.548L484.833 56.044C484.378 56.1467 483.938 56.198 483.513 56.198ZM488.18 59.96L490.006 55.824L485.496 45.308H487.432L490.974 53.976L494.538 45.308H496.408L490.05 59.96H488.18ZM4.28 96.198C3.444 96.198 2.652 96.0807 1.904 95.846C1.156 95.6113 0.54 95.2813 0.056 94.856L0.628 93.602C1.156 94.0273 1.73533 94.3427 2.366 94.548C3.01133 94.7387 3.664 94.834 4.324 94.834C5.16 94.834 5.79067 94.68 6.216 94.372C6.64133 94.064 6.854 93.646 6.854 93.118C6.854 92.7073 6.71467 92.3847 6.436 92.15C6.15733 91.9007 5.71733 91.71 5.116 91.578L3.114 91.138C1.29533 90.742 0.386 89.8033 0.386 88.322C0.386 87.354 0.767333 86.5767 1.53 85.99C2.30733 85.4033 3.31933 85.11 4.566 85.11C5.29933 85.11 5.996 85.2273 6.656 85.462C7.33067 85.682 7.888 86.012 8.328 86.452L7.734 87.706C7.30867 87.31 6.81 87.0093 6.238 86.804C5.68067 86.584 5.12333 86.474 4.566 86.474C3.74467 86.474 3.12133 86.6353 2.696 86.958C2.27067 87.2807 2.058 87.706 2.058 88.234C2.058 89.0553 2.60067 89.5833 3.686 89.818L5.688 90.236C6.62667 90.4413 7.338 90.7713 7.822 91.226C8.306 91.666 8.548 92.2673 8.548 93.03C8.548 94.0127 8.15933 94.79 7.382 95.362C6.60467 95.9193 5.57067 96.198 4.28 96.198ZM15.0698 96.198C14.3365 96.198 13.6765 96.0587 13.0898 95.78C12.5178 95.4867 12.0631 95.0907 11.7258 94.592C11.3885 94.0933 11.2198 93.536 11.2198 92.92C11.2198 92.1427 11.4178 91.5267 11.8138 91.072C12.2245 90.6173 12.8918 90.2947 13.8158 90.104C14.7545 89.8987 16.0305 89.796 17.6438 89.796H18.3478V89.114C18.3478 88.2047 18.1571 87.552 17.7758 87.156C17.4091 86.7453 16.8151 86.54 15.9938 86.54C15.3485 86.54 14.7251 86.6353 14.1238 86.826C13.5225 87.002 12.9065 87.2953 12.2758 87.706L11.6598 86.408C12.2171 86.012 12.8918 85.6967 13.6838 85.462C14.4905 85.2273 15.2605 85.11 15.9938 85.11C17.3725 85.11 18.3918 85.4473 19.0518 86.122C19.7265 86.7967 20.0638 87.8453 20.0638 89.268V96H18.3918V94.152C18.1131 94.7827 17.6805 95.2813 17.0938 95.648C16.5218 96.0147 15.8471 96.198 15.0698 96.198ZM15.3558 94.856C16.2358 94.856 16.9545 94.5553 17.5118 93.954C18.0691 93.338 18.3478 92.5607 18.3478 91.622V90.962H17.6658C16.4778 90.962 15.5391 91.0207 14.8498 91.138C14.1751 91.2407 13.6985 91.4313 13.4198 91.71C13.1558 91.974 13.0238 92.3407 13.0238 92.81C13.0238 93.4113 13.2291 93.9027 13.6398 94.284C14.0651 94.6653 14.6371 94.856 15.3558 94.856ZM26.8484 96L22.2504 85.308H24.1864L27.7284 93.976L31.3144 85.308H33.1404L28.5204 96H26.8484ZM40.1323 96.198C38.4456 96.198 37.1109 95.7067 36.1283 94.724C35.1456 93.7267 34.6543 92.3773 34.6543 90.676C34.6543 89.576 34.8743 88.608 35.3143 87.772C35.7543 86.9213 36.3556 86.2687 37.1183 85.814C37.8956 85.3447 38.7903 85.11 39.8023 85.11C41.2543 85.11 42.3909 85.5793 43.2123 86.518C44.0336 87.442 44.4443 88.718 44.4443 90.346V91.028H36.3923C36.4509 92.2453 36.8029 93.1767 37.4483 93.822C38.0936 94.4527 38.9883 94.768 40.1323 94.768C40.7776 94.768 41.3936 94.6727 41.9803 94.482C42.5669 94.2767 43.1243 93.9467 43.6523 93.492L44.2683 94.746C43.7843 95.2007 43.1683 95.56 42.4203 95.824C41.6723 96.0733 40.9096 96.198 40.1323 96.198ZM39.8463 86.43C38.8343 86.43 38.0349 86.7453 37.4483 87.376C36.8616 88.0067 36.5169 88.8353 36.4143 89.862H42.9043C42.8603 88.7767 42.5743 87.9333 42.0463 87.332C41.5329 86.7307 40.7996 86.43 39.8463 86.43ZM51.0712 96.198C50.2352 96.198 49.4432 96.0807 48.6952 95.846C47.9472 95.6113 47.3312 95.2813 46.8472 94.856L47.4192 93.602C47.9472 94.0273 48.5266 94.3427 49.1572 94.548C49.8026 94.7387 50.4552 94.834 51.1152 94.834C51.9512 94.834 52.5819 94.68 53.0072 94.372C53.4326 94.064 53.6452 93.646 53.6452 93.118C53.6452 92.7073 53.5059 92.3847 53.2272 92.15C52.9486 91.9007 52.5086 91.71 51.9072 91.578L49.9052 91.138C48.0866 90.742 47.1772 89.8033 47.1772 88.322C47.1772 87.354 47.5586 86.5767 48.3212 85.99C49.0986 85.4033 50.1106 85.11 51.3572 85.11C52.0906 85.11 52.7872 85.2273 53.4472 85.462C54.1219 85.682 54.6792 86.012 55.1192 86.452L54.5252 87.706C54.0999 87.31 53.6012 87.0093 53.0292 86.804C52.4719 86.584 51.9146 86.474 51.3572 86.474C50.5359 86.474 49.9126 86.6353 49.4872 86.958C49.0619 87.2807 48.8492 87.706 48.8492 88.234C48.8492 89.0553 49.3919 89.5833 50.4772 89.818L52.4792 90.236C53.4179 90.4413 54.1292 90.7713 54.6132 91.226C55.0972 91.666 55.3392 92.2673 55.3392 93.03C55.3392 94.0127 54.9506 94.79 54.1732 95.362C53.3959 95.9193 52.3619 96.198 51.0712 96.198ZM64.6294 96V85.308H66.3674V87.112C66.6901 86.4667 67.1374 85.9753 67.7094 85.638C68.2814 85.286 68.9488 85.11 69.7114 85.11C71.3834 85.11 72.4541 85.836 72.9234 87.288C73.2461 86.6133 73.7228 86.0853 74.3534 85.704C74.9841 85.308 75.7101 85.11 76.5314 85.11C78.9074 85.11 80.0954 86.518 80.0954 89.334V96H78.3134V89.422C78.3134 88.4393 78.1374 87.7207 77.7854 87.266C77.4481 86.7967 76.8834 86.562 76.0914 86.562C75.2261 86.562 74.5368 86.87 74.0234 87.486C73.5101 88.102 73.2534 88.9233 73.2534 89.95V96H71.4714V89.422C71.4714 88.4393 71.2954 87.7207 70.9434 87.266C70.6061 86.7967 70.0414 86.562 69.2494 86.562C68.3694 86.562 67.6728 86.87 67.1594 87.486C66.6608 88.102 66.4114 88.9233 66.4114 89.95V96H64.6294ZM88.6852 96.198C86.9986 96.198 85.6639 95.7067 84.6812 94.724C83.6986 93.7267 83.2072 92.3773 83.2072 90.676C83.2072 89.576 83.4272 88.608 83.8672 87.772C84.3072 86.9213 84.9086 86.2687 85.6712 85.814C86.4486 85.3447 87.3432 85.11 88.3552 85.11C89.8072 85.11 90.9439 85.5793 91.7652 86.518C92.5866 87.442 92.9972 88.718 92.9972 90.346V91.028H84.9452C85.0039 92.2453 85.3559 93.1767 86.0012 93.822C86.6466 94.4527 87.5412 94.768 88.6852 94.768C89.3306 94.768 89.9466 94.6727 90.5332 94.482C91.1199 94.2767 91.6772 93.9467 92.2052 93.492L92.8212 94.746C92.3372 95.2007 91.7212 95.56 90.9732 95.824C90.2252 96.0733 89.4626 96.198 88.6852 96.198ZM88.3992 86.43C87.3872 86.43 86.5879 86.7453 86.0012 87.376C85.4146 88.0067 85.0699 88.8353 84.9672 89.862H91.4572C91.4132 88.7767 91.1272 87.9333 90.5992 87.332C90.0859 86.7307 89.3526 86.43 88.3992 86.43ZM106.397 96.198C105.135 96.198 104.189 95.868 103.559 95.208C102.928 94.5333 102.613 93.5653 102.613 92.304V86.694H100.523V85.308H102.613V82.03H104.395V85.308H107.783V86.694H104.395V92.128C104.395 92.964 104.571 93.602 104.923 94.042C105.275 94.4673 105.847 94.68 106.639 94.68C106.873 94.68 107.108 94.6507 107.343 94.592C107.577 94.5333 107.79 94.4747 107.981 94.416L108.289 95.78C108.098 95.8827 107.819 95.978 107.453 96.066C107.086 96.154 106.734 96.198 106.397 96.198ZM110.018 82.646V80.644H112.218V82.646H110.018ZM110.238 96V85.308H112.02V96H110.238ZM115.835 96V85.308H117.573V87.112C117.896 86.4667 118.343 85.9753 118.915 85.638C119.487 85.286 120.155 85.11 120.917 85.11C122.589 85.11 123.66 85.836 124.129 87.288C124.452 86.6133 124.929 86.0853 125.559 85.704C126.19 85.308 126.916 85.11 127.737 85.11C130.113 85.11 131.301 86.518 131.301 89.334V96H129.519V89.422C129.519 88.4393 129.343 87.7207 128.991 87.266C128.654 86.7967 128.089 86.562 127.297 86.562C126.432 86.562 125.743 86.87 125.229 87.486C124.716 88.102 124.459 88.9233 124.459 89.95V96H122.677V89.422C122.677 88.4393 122.501 87.7207 122.149 87.266C121.812 86.7967 121.247 86.562 120.455 86.562C119.575 86.562 118.879 86.87 118.365 87.486C117.867 88.102 117.617 88.9233 117.617 89.95V96H115.835ZM139.891 96.198C138.204 96.198 136.87 95.7067 135.887 94.724C134.904 93.7267 134.413 92.3773 134.413 90.676C134.413 89.576 134.633 88.608 135.073 87.772C135.513 86.9213 136.114 86.2687 136.877 85.814C137.654 85.3447 138.549 85.11 139.561 85.11C141.013 85.11 142.15 85.5793 142.971 86.518C143.792 87.442 144.203 88.718 144.203 90.346V91.028H136.151C136.21 92.2453 136.562 93.1767 137.207 93.822C137.852 94.4527 138.747 94.768 139.891 94.768C140.536 94.768 141.152 94.6727 141.739 94.482C142.326 94.2767 142.883 93.9467 143.411 93.492L144.027 94.746C143.543 95.2007 142.927 95.56 142.179 95.824C141.431 96.0733 140.668 96.198 139.891 96.198ZM139.605 86.43C138.593 86.43 137.794 86.7453 137.207 87.376C136.62 88.0067 136.276 88.8353 136.173 89.862H142.663C142.619 88.7767 142.333 87.9333 141.805 87.332C141.292 86.7307 140.558 86.43 139.605 86.43ZM156.678 96.198C155.945 96.198 155.285 96.0587 154.698 95.78C154.126 95.4867 153.672 95.0907 153.334 94.592C152.997 94.0933 152.828 93.536 152.828 92.92C152.828 92.1427 153.026 91.5267 153.422 91.072C153.833 90.6173 154.5 90.2947 155.424 90.104C156.363 89.8987 157.639 89.796 159.252 89.796H159.956V89.114C159.956 88.2047 159.766 87.552 159.384 87.156C159.018 86.7453 158.424 86.54 157.602 86.54C156.957 86.54 156.334 86.6353 155.732 86.826C155.131 87.002 154.515 87.2953 153.884 87.706L153.268 86.408C153.826 86.012 154.5 85.6967 155.292 85.462C156.099 85.2273 156.869 85.11 157.602 85.11C158.981 85.11 160 85.4473 160.66 86.122C161.335 86.7967 161.672 87.8453 161.672 89.268V96H160V94.152C159.722 94.7827 159.289 95.2813 158.702 95.648C158.13 96.0147 157.456 96.198 156.678 96.198ZM156.964 94.856C157.844 94.856 158.563 94.5553 159.12 93.954C159.678 93.338 159.956 92.5607 159.956 91.622V90.962H159.274C158.086 90.962 157.148 91.0207 156.458 91.138C155.784 91.2407 155.307 91.4313 155.028 91.71C154.764 91.974 154.632 92.3407 154.632 92.81C154.632 93.4113 154.838 93.9027 155.248 94.284C155.674 94.6653 156.246 94.856 156.964 94.856ZM165.418 96V85.308H167.156V87.134C167.508 86.4593 168.007 85.9533 168.652 85.616C169.298 85.2787 170.024 85.11 170.83 85.11C173.368 85.11 174.636 86.518 174.636 89.334V96H172.854V89.444C172.854 88.4467 172.656 87.7207 172.26 87.266C171.879 86.7967 171.263 86.562 170.412 86.562C169.43 86.562 168.645 86.87 168.058 87.486C167.486 88.0873 167.2 88.894 167.2 89.906V96H165.418ZM182.432 96.198C181.479 96.198 180.643 95.9707 179.924 95.516C179.22 95.0613 178.67 94.4233 178.274 93.602C177.893 92.766 177.702 91.7833 177.702 90.654C177.702 89.51 177.893 88.5273 178.274 87.706C178.67 86.87 179.22 86.232 179.924 85.792C180.643 85.3373 181.479 85.11 182.432 85.11C183.268 85.11 184.002 85.2933 184.632 85.66C185.278 86.0267 185.754 86.5327 186.062 87.178V80.49H187.844V96H186.106V94.042C185.798 94.7167 185.322 95.2447 184.676 95.626C184.031 96.0073 183.283 96.198 182.432 96.198ZM182.806 94.768C183.804 94.768 184.603 94.416 185.204 93.712C185.806 92.9933 186.106 91.974 186.106 90.654C186.106 89.3193 185.806 88.3 185.204 87.596C184.603 86.892 183.804 86.54 182.806 86.54C181.794 86.54 180.988 86.892 180.386 87.596C179.8 88.3 179.506 89.3193 179.506 90.654C179.506 91.974 179.8 92.9933 180.386 93.712C180.988 94.416 181.794 94.768 182.806 94.768ZM202.537 96.198C200.85 96.198 199.516 95.7067 198.533 94.724C197.55 93.7267 197.059 92.3773 197.059 90.676C197.059 89.576 197.279 88.608 197.719 87.772C198.159 86.9213 198.76 86.2687 199.523 85.814C200.3 85.3447 201.195 85.11 202.207 85.11C203.659 85.11 204.796 85.5793 205.617 86.518C206.438 87.442 206.849 88.718 206.849 90.346V91.028H198.797C198.856 92.2453 199.208 93.1767 199.853 93.822C200.498 94.4527 201.393 94.768 202.537 94.768C203.182 94.768 203.798 94.6727 204.385 94.482C204.972 94.2767 205.529 93.9467 206.057 93.492L206.673 94.746C206.189 95.2007 205.573 95.56 204.825 95.824C204.077 96.0733 203.314 96.198 202.537 96.198ZM202.251 86.43C201.239 86.43 200.44 86.7453 199.853 87.376C199.266 88.0067 198.922 88.8353 198.819 89.862H205.309C205.265 88.7767 204.979 87.9333 204.451 87.332C203.938 86.7307 203.204 86.43 202.251 86.43ZM210.44 96V86.694H208.328V85.308H210.44V84.934C210.44 83.5113 210.792 82.4333 211.496 81.7C212.215 80.9667 213.315 80.556 214.796 80.468L215.654 80.424L215.808 81.788L214.796 81.854C213.887 81.9273 213.227 82.1987 212.816 82.668C212.42 83.1373 212.222 83.8193 212.222 84.714V85.308H215.302V86.694H212.222V96H210.44ZM217.862 96V86.694H215.75V85.308H217.862V84.934C217.862 83.5113 218.214 82.4333 218.918 81.7C219.637 80.9667 220.737 80.556 222.218 80.468L223.076 80.424L223.23 81.788L222.218 81.854C221.309 81.9273 220.649 82.1987 220.238 82.668C219.842 83.1373 219.644 83.8193 219.644 84.714V85.308H222.724V86.694H219.644V96H217.862ZM229.2 96.198C228.158 96.198 227.256 95.9707 226.494 95.516C225.731 95.0613 225.137 94.4233 224.712 93.602C224.301 92.766 224.096 91.7833 224.096 90.654C224.096 89.5247 224.301 88.5493 224.712 87.728C225.137 86.892 225.731 86.2467 226.494 85.792C227.256 85.3373 228.158 85.11 229.2 85.11C230.226 85.11 231.121 85.3373 231.884 85.792C232.661 86.2467 233.255 86.892 233.666 87.728C234.091 88.5493 234.304 89.5247 234.304 90.654C234.304 91.7833 234.091 92.766 233.666 93.602C233.255 94.4233 232.661 95.0613 231.884 95.516C231.121 95.9707 230.226 96.198 229.2 96.198ZM229.2 94.768C230.197 94.768 230.996 94.416 231.598 93.712C232.199 92.9933 232.5 91.974 232.5 90.654C232.5 89.3193 232.199 88.3 231.598 87.596C230.996 86.892 230.197 86.54 229.2 86.54C228.188 86.54 227.381 86.892 226.78 87.596C226.193 88.3 225.9 89.3193 225.9 90.654C225.9 91.974 226.193 92.9933 226.78 93.712C227.381 94.416 228.188 94.768 229.2 94.768ZM237.42 96V85.308H239.158V87.222C239.73 85.9313 240.904 85.22 242.678 85.088L243.316 85.022L243.448 86.562L242.326 86.694C241.314 86.782 240.544 87.1047 240.016 87.662C239.488 88.2047 239.224 88.9527 239.224 89.906V96H237.42ZM250.615 96.198C249.354 96.198 248.408 95.868 247.777 95.208C247.147 94.5333 246.831 93.5653 246.831 92.304V86.694H244.741V85.308H246.831V82.03H248.613V85.308H252.001V86.694H248.613V92.128C248.613 92.964 248.789 93.602 249.141 94.042C249.493 94.4673 250.065 94.68 250.857 94.68C251.092 94.68 251.327 94.6507 251.561 94.592C251.796 94.5333 252.009 94.4747 252.199 94.416L252.507 95.78C252.317 95.8827 252.038 95.978 251.671 96.066C251.305 96.154 250.953 96.198 250.615 96.198ZM254.471 96V93.756H256.715V96H254.471ZM271.552 96.198C270.334 96.198 269.234 96.044 268.252 95.736C267.269 95.4133 266.418 94.9513 265.7 94.35L266.338 92.898C267.086 93.47 267.87 93.8953 268.692 94.174C269.513 94.4527 270.466 94.592 271.552 94.592C272.872 94.592 273.847 94.35 274.478 93.866C275.123 93.3673 275.446 92.7147 275.446 91.908C275.446 91.2627 275.211 90.7493 274.742 90.368C274.287 89.9867 273.517 89.686 272.432 89.466L270.144 89.004C268.765 88.7107 267.731 88.234 267.042 87.574C266.367 86.8993 266.03 86.0047 266.03 84.89C266.03 83.966 266.264 83.1593 266.734 82.47C267.218 81.7807 267.885 81.2453 268.736 80.864C269.586 80.4827 270.569 80.292 271.684 80.292C272.725 80.292 273.693 80.4607 274.588 80.798C275.482 81.1207 276.238 81.59 276.854 82.206L276.216 83.614C275.556 83.0127 274.859 82.58 274.126 82.316C273.392 82.0373 272.571 81.898 271.662 81.898C270.503 81.898 269.579 82.1693 268.89 82.712C268.2 83.24 267.856 83.944 267.856 84.824C267.856 85.528 268.068 86.0853 268.494 86.496C268.934 86.9067 269.645 87.2073 270.628 87.398L272.916 87.882C274.397 88.19 275.49 88.6593 276.194 89.29C276.912 89.906 277.272 90.7493 277.272 91.82C277.272 92.6853 277.037 93.448 276.568 94.108C276.113 94.768 275.453 95.2813 274.588 95.648C273.737 96.0147 272.725 96.198 271.552 96.198ZM280.269 96V80.49H282.051V90.06H282.095L287.045 85.308H289.311L283.943 90.456L289.773 96H287.507L282.095 90.984H282.051V96H280.269ZM291.489 82.646V80.644H293.689V82.646H291.489ZM291.709 96V85.308H293.491V96H291.709ZM300.54 96.198C299.455 96.198 298.633 95.8827 298.076 95.252C297.533 94.6067 297.262 93.6753 297.262 92.458V80.49H299.044V92.326C299.044 93.8953 299.667 94.68 300.914 94.68C301.281 94.68 301.611 94.636 301.904 94.548L301.86 96.044C301.405 96.1467 300.965 96.198 300.54 96.198ZM307.49 96.198C306.405 96.198 305.583 95.8827 305.026 95.252C304.483 94.6067 304.212 93.6753 304.212 92.458V80.49H305.994V92.326C305.994 93.8953 306.617 94.68 307.864 94.68C308.231 94.68 308.561 94.636 308.854 94.548L308.81 96.044C308.355 96.1467 307.915 96.198 307.49 96.198ZM310.942 82.646V80.644H313.142V82.646H310.942ZM311.162 96V85.308H312.944V96H311.162ZM316.715 96V85.308H318.453V87.134C318.805 86.4593 319.304 85.9533 319.949 85.616C320.594 85.2787 321.32 85.11 322.127 85.11C324.664 85.11 325.933 86.518 325.933 89.334V96H324.151V89.444C324.151 88.4467 323.953 87.7207 323.557 87.266C323.176 86.7967 322.56 86.562 321.709 86.562C320.726 86.562 319.942 86.87 319.355 87.486C318.783 88.0873 318.497 88.894 318.497 89.906V96H316.715ZM334.477 96.198C332.79 96.198 331.455 95.7067 330.473 94.724C329.49 93.7267 328.999 92.3773 328.999 90.676C328.999 89.576 329.219 88.608 329.659 87.772C330.099 86.9213 330.7 86.2687 331.463 85.814C332.24 85.3447 333.135 85.11 334.147 85.11C335.599 85.11 336.735 85.5793 337.557 86.518C338.378 87.442 338.789 88.718 338.789 90.346V91.028H330.737C330.795 92.2453 331.147 93.1767 331.793 93.822C332.438 94.4527 333.333 94.768 334.477 94.768C335.122 94.768 335.738 94.6727 336.325 94.482C336.911 94.2767 337.469 93.9467 337.997 93.492L338.613 94.746C338.129 95.2007 337.513 95.56 336.765 95.824C336.017 96.0733 335.254 96.198 334.477 96.198ZM334.191 86.43C333.179 86.43 332.379 86.7453 331.793 87.376C331.206 88.0067 330.861 88.8353 330.759 89.862H337.249C337.205 88.7767 336.919 87.9333 336.391 87.332C335.877 86.7307 335.144 86.43 334.191 86.43ZM347.678 82.646V80.644H349.878V82.646H347.678ZM347.898 96V85.308H349.68V96H347.898ZM357.059 96.198C356.223 96.198 355.431 96.0807 354.683 95.846C353.935 95.6113 353.319 95.2813 352.835 94.856L353.407 93.602C353.935 94.0273 354.515 94.3427 355.145 94.548C355.791 94.7387 356.443 94.834 357.103 94.834C357.939 94.834 358.57 94.68 358.995 94.372C359.421 94.064 359.633 93.646 359.633 93.118C359.633 92.7073 359.494 92.3847 359.215 92.15C358.937 91.9007 358.497 91.71 357.895 91.578L355.893 91.138C354.075 90.742 353.165 89.8033 353.165 88.322C353.165 87.354 353.547 86.5767 354.309 85.99C355.087 85.4033 356.099 85.11 357.345 85.11C358.079 85.11 358.775 85.2273 359.435 85.462C360.11 85.682 360.667 86.012 361.107 86.452L360.513 87.706C360.088 87.31 359.589 87.0093 359.017 86.804C358.46 86.584 357.903 86.474 357.345 86.474C356.524 86.474 355.901 86.6353 355.475 86.958C355.05 87.2807 354.837 87.706 354.837 88.234C354.837 89.0553 355.38 89.5833 356.465 89.818L358.467 90.236C359.406 90.4413 360.117 90.7713 360.601 91.226C361.085 91.666 361.327 92.2673 361.327 93.03C361.327 94.0127 360.939 94.79 360.161 95.362C359.384 95.9193 358.35 96.198 357.059 96.198ZM375.392 96.198C373.705 96.198 372.37 95.7067 371.388 94.724C370.405 93.7267 369.914 92.3773 369.914 90.676C369.914 89.576 370.134 88.608 370.574 87.772C371.014 86.9213 371.615 86.2687 372.378 85.814C373.155 85.3447 374.05 85.11 375.062 85.11C376.514 85.11 377.65 85.5793 378.472 86.518C379.293 87.442 379.704 88.718 379.704 90.346V91.028H371.652C371.71 92.2453 372.062 93.1767 372.708 93.822C373.353 94.4527 374.248 94.768 375.392 94.768C376.037 94.768 376.653 94.6727 377.24 94.482C377.826 94.2767 378.384 93.9467 378.912 93.492L379.528 94.746C379.044 95.2007 378.428 95.56 377.68 95.824C376.932 96.0733 376.169 96.198 375.392 96.198ZM375.106 86.43C374.094 86.43 373.294 86.7453 372.708 87.376C372.121 88.0067 371.776 88.8353 371.674 89.862H378.164C378.12 88.7767 377.834 87.9333 377.306 87.332C376.792 86.7307 376.059 86.43 375.106 86.43ZM381.273 96L385.717 90.478L381.537 85.308H383.649L386.751 89.246L389.875 85.308H391.965L387.785 90.478L392.229 96H390.117L386.729 91.754L383.385 96H381.273ZM397.915 96.198C397.182 96.198 396.522 96.0587 395.935 95.78C395.363 95.4867 394.909 95.0907 394.571 94.592C394.234 94.0933 394.065 93.536 394.065 92.92C394.065 92.1427 394.263 91.5267 394.659 91.072C395.07 90.6173 395.737 90.2947 396.661 90.104C397.6 89.8987 398.876 89.796 400.489 89.796H401.193V89.114C401.193 88.2047 401.003 87.552 400.621 87.156C400.255 86.7453 399.661 86.54 398.839 86.54C398.194 86.54 397.571 86.6353 396.969 86.826C396.368 87.002 395.752 87.2953 395.121 87.706L394.505 86.408C395.063 86.012 395.737 85.6967 396.529 85.462C397.336 85.2273 398.106 85.11 398.839 85.11C400.218 85.11 401.237 85.4473 401.897 86.122C402.572 86.7967 402.909 87.8453 402.909 89.268V96H401.237V94.152C400.959 94.7827 400.526 95.2813 399.939 95.648C399.367 96.0147 398.693 96.198 397.915 96.198ZM398.201 94.856C399.081 94.856 399.8 94.5553 400.357 93.954C400.915 93.338 401.193 92.5607 401.193 91.622V90.962H400.511C399.323 90.962 398.385 91.0207 397.695 91.138C397.021 91.2407 396.544 91.4313 396.265 91.71C396.001 91.974 395.869 92.3407 395.869 92.81C395.869 93.4113 396.075 93.9027 396.485 94.284C396.911 94.6653 397.483 94.856 398.201 94.856ZM411.187 96.198C410.117 96.198 409.193 95.9707 408.415 95.516C407.638 95.0467 407.037 94.394 406.611 93.558C406.201 92.7073 405.995 91.7173 405.995 90.588C405.995 88.8867 406.457 87.552 407.381 86.584C408.305 85.6013 409.574 85.11 411.187 85.11C411.847 85.11 412.5 85.2273 413.145 85.462C413.791 85.6967 414.326 86.0267 414.751 86.452L414.135 87.75C413.71 87.3393 413.241 87.0387 412.727 86.848C412.229 86.6573 411.752 86.562 411.297 86.562C410.183 86.562 409.325 86.914 408.723 87.618C408.122 88.3073 407.821 89.3047 407.821 90.61C407.821 91.886 408.122 92.898 408.723 93.646C409.325 94.3793 410.183 94.746 411.297 94.746C411.752 94.746 412.229 94.6507 412.727 94.46C413.241 94.2693 413.71 93.9613 414.135 93.536L414.751 94.834C414.326 95.2593 413.783 95.5967 413.123 95.846C412.478 96.0807 411.833 96.198 411.187 96.198ZM421.569 96.198C420.308 96.198 419.362 95.868 418.731 95.208C418.1 94.5333 417.785 93.5653 417.785 92.304V86.694H415.695V85.308H417.785V82.03H419.567V85.308H422.955V86.694H419.567V92.128C419.567 92.964 419.743 93.602 420.095 94.042C420.447 94.4673 421.019 94.68 421.811 94.68C422.046 94.68 422.28 94.6507 422.515 94.592C422.75 94.5333 422.962 94.4747 423.153 94.416L423.461 95.78C423.27 95.8827 422.992 95.978 422.625 96.066C422.258 96.154 421.906 96.198 421.569 96.198ZM428.688 96.198C427.603 96.198 426.782 95.8827 426.224 95.252C425.682 94.6067 425.41 93.6753 425.41 92.458V80.49H427.192V92.326C427.192 93.8953 427.816 94.68 429.062 94.68C429.429 94.68 429.759 94.636 430.052 94.548L430.008 96.044C429.554 96.1467 429.114 96.198 428.688 96.198ZM433.356 99.96L435.182 95.824L430.672 85.308H432.608L436.15 93.976L439.714 85.308H441.584L435.226 99.96H433.356ZM452.793 96L448.811 85.308H450.681L453.695 93.91L456.819 85.308H458.337L461.417 93.932L464.475 85.308H466.257L462.253 96H460.559L457.545 87.706L454.509 96H452.793ZM468.893 96V80.49H470.675V87.068C471.027 86.4227 471.518 85.9387 472.149 85.616C472.794 85.2787 473.513 85.11 474.305 85.11C476.842 85.11 478.111 86.518 478.111 89.334V96H476.329V89.444C476.329 88.4467 476.131 87.7207 475.735 87.266C475.354 86.7967 474.738 86.562 473.887 86.562C472.904 86.562 472.12 86.87 471.533 87.486C470.961 88.0873 470.675 88.894 470.675 89.906V96H468.893ZM485.203 96.198C484.47 96.198 483.81 96.0587 483.223 95.78C482.651 95.4867 482.196 95.0907 481.859 94.592C481.522 94.0933 481.353 93.536 481.353 92.92C481.353 92.1427 481.551 91.5267 481.947 91.072C482.358 90.6173 483.025 90.2947 483.949 90.104C484.888 89.8987 486.164 89.796 487.777 89.796H488.481V89.114C488.481 88.2047 488.29 87.552 487.909 87.156C487.542 86.7453 486.948 86.54 486.127 86.54C485.482 86.54 484.858 86.6353 484.257 86.826C483.656 87.002 483.04 87.2953 482.409 87.706L481.793 86.408C482.35 86.012 483.025 85.6967 483.817 85.462C484.624 85.2273 485.394 85.11 486.127 85.11C487.506 85.11 488.525 85.4473 489.185 86.122C489.86 86.7967 490.197 87.8453 490.197 89.268V96H488.525V94.152C488.246 94.7827 487.814 95.2813 487.227 95.648C486.655 96.0147 485.98 96.198 485.203 96.198ZM485.489 94.856C486.369 94.856 487.088 94.5553 487.645 93.954C488.202 93.338 488.481 92.5607 488.481 91.622V90.962H487.799C486.611 90.962 485.672 91.0207 484.983 91.138C484.308 91.2407 483.832 91.4313 483.553 91.71C483.289 91.974 483.157 92.3407 483.157 92.81C483.157 93.4113 483.362 93.9027 483.773 94.284C484.198 94.6653 484.77 94.856 485.489 94.856ZM498.233 96.198C496.972 96.198 496.026 95.868 495.395 95.208C494.764 94.5333 494.449 93.5653 494.449 92.304V86.694H492.359V85.308H494.449V82.03H496.231V85.308H499.619V86.694H496.231V92.128C496.231 92.964 496.407 93.602 496.759 94.042C497.111 94.4673 497.683 94.68 498.475 94.68C498.71 94.68 498.944 94.6507 499.179 94.592C499.414 94.5333 499.626 94.4747 499.817 94.416L500.125 95.78C499.934 95.8827 499.656 95.978 499.289 96.066C498.922 96.154 498.57 96.198 498.233 96.198ZM5.116 136.198C4.07467 136.198 3.17267 135.971 2.41 135.516C1.64733 135.061 1.05333 134.423 0.628 133.602C0.217333 132.766 0.0120001 131.783 0.0120001 130.654C0.0120001 129.525 0.217333 128.549 0.628 127.728C1.05333 126.892 1.64733 126.247 2.41 125.792C3.17267 125.337 4.07467 125.11 5.116 125.11C6.14267 125.11 7.03733 125.337 7.8 125.792C8.57733 126.247 9.17133 126.892 9.582 127.728C10.0073 128.549 10.22 129.525 10.22 130.654C10.22 131.783 10.0073 132.766 9.582 133.602C9.17133 134.423 8.57733 135.061 7.8 135.516C7.03733 135.971 6.14267 136.198 5.116 136.198ZM5.116 134.768C6.11333 134.768 6.91267 134.416 7.514 133.712C8.11533 132.993 8.416 131.974 8.416 130.654C8.416 129.319 8.11533 128.3 7.514 127.596C6.91267 126.892 6.11333 126.54 5.116 126.54C4.104 126.54 3.29733 126.892 2.696 127.596C2.10933 128.3 1.816 129.319 1.816 130.654C1.816 131.974 2.10933 132.993 2.696 133.712C3.29733 134.416 4.104 134.768 5.116 134.768ZM17.1206 136.198C14.5539 136.198 13.2706 134.783 13.2706 131.952V125.308H15.0526V131.93C15.0526 132.883 15.2433 133.587 15.6246 134.042C16.0206 134.497 16.6366 134.724 17.4726 134.724C18.3819 134.724 19.1226 134.423 19.6946 133.822C20.2666 133.206 20.5526 132.392 20.5526 131.38V125.308H22.3346V136H20.5966V134.196C20.2593 134.841 19.7826 135.34 19.1666 135.692C18.5653 136.029 17.8833 136.198 17.1206 136.198ZM26.1086 136V125.308H27.8466V127.222C28.4186 125.931 29.592 125.22 31.3666 125.088L32.0046 125.022L32.1366 126.562L31.0146 126.694C30.0026 126.782 29.2326 127.105 28.7046 127.662C28.1766 128.205 27.9126 128.953 27.9126 129.906V136H26.1086ZM45.9358 136.198C45.0851 136.198 44.3371 136.007 43.6918 135.626C43.0611 135.245 42.5845 134.724 42.2618 134.064V136H40.5238V120.49H42.3058V127.156C42.6138 126.525 43.0905 126.027 43.7358 125.66C44.3811 125.293 45.1145 125.11 45.9358 125.11C46.8891 125.11 47.7178 125.337 48.4218 125.792C49.1405 126.232 49.6905 126.87 50.0718 127.706C50.4678 128.527 50.6658 129.51 50.6658 130.654C50.6658 131.783 50.4678 132.766 50.0718 133.602C49.6905 134.423 49.1405 135.061 48.4218 135.516C47.7178 135.971 46.8891 136.198 45.9358 136.198ZM45.5618 134.768C46.5591 134.768 47.3585 134.416 47.9598 133.712C48.5611 132.993 48.8618 131.974 48.8618 130.654C48.8618 129.319 48.5611 128.3 47.9598 127.596C47.3585 126.892 46.5591 126.54 45.5618 126.54C44.5645 126.54 43.7651 126.892 43.1638 127.596C42.5625 128.3 42.2618 129.319 42.2618 130.654C42.2618 131.974 42.5625 132.993 43.1638 133.712C43.7651 134.416 44.5645 134.768 45.5618 134.768ZM57.574 136.198C55.0073 136.198 53.724 134.783 53.724 131.952V125.308H55.506V131.93C55.506 132.883 55.6966 133.587 56.078 134.042C56.474 134.497 57.09 134.724 57.926 134.724C58.8353 134.724 59.576 134.423 60.148 133.822C60.72 133.206 61.006 132.392 61.006 131.38V125.308H62.788V136H61.05V134.196C60.7126 134.841 60.236 135.34 59.62 135.692C59.0186 136.029 58.3366 136.198 57.574 136.198ZM70.17 136.198C69.334 136.198 68.542 136.081 67.794 135.846C67.046 135.611 66.43 135.281 65.946 134.856L66.518 133.602C67.046 134.027 67.6253 134.343 68.256 134.548C68.9013 134.739 69.554 134.834 70.214 134.834C71.05 134.834 71.6807 134.68 72.106 134.372C72.5313 134.064 72.744 133.646 72.744 133.118C72.744 132.707 72.6047 132.385 72.326 132.15C72.0473 131.901 71.6073 131.71 71.006 131.578L69.004 131.138C67.1853 130.742 66.276 129.803 66.276 128.322C66.276 127.354 66.6573 126.577 67.42 125.99C68.1973 125.403 69.2093 125.11 70.456 125.11C71.1893 125.11 71.886 125.227 72.546 125.462C73.2207 125.682 73.778 126.012 74.218 126.452L73.624 127.706C73.1987 127.31 72.7 127.009 72.128 126.804C71.5707 126.584 71.0133 126.474 70.456 126.474C69.6347 126.474 69.0113 126.635 68.586 126.958C68.1607 127.281 67.948 127.706 67.948 128.234C67.948 129.055 68.4907 129.583 69.576 129.818L71.578 130.236C72.5167 130.441 73.228 130.771 73.712 131.226C74.196 131.666 74.438 132.267 74.438 133.03C74.438 134.013 74.0493 134.79 73.272 135.362C72.4947 135.919 71.4607 136.198 70.17 136.198ZM77.3738 122.646V120.644H79.5738V122.646H77.3738ZM77.5938 136V125.308H79.3758V136H77.5938ZM83.1471 136V125.308H84.8851V127.134C85.2371 126.459 85.7357 125.953 86.3811 125.616C87.0264 125.279 87.7524 125.11 88.5591 125.11C91.0964 125.11 92.3651 126.518 92.3651 129.334V136H90.5831V129.444C90.5831 128.447 90.3851 127.721 89.9891 127.266C89.6077 126.797 88.9917 126.562 88.1411 126.562C87.1584 126.562 86.3737 126.87 85.7871 127.486C85.2151 128.087 84.9291 128.894 84.9291 129.906V136H83.1471ZM100.909 136.198C99.2223 136.198 97.8877 135.707 96.905 134.724C95.9223 133.727 95.431 132.377 95.431 130.676C95.431 129.576 95.651 128.608 96.091 127.772C96.531 126.921 97.1323 126.269 97.895 125.814C98.6723 125.345 99.567 125.11 100.579 125.11C102.031 125.11 103.168 125.579 103.989 126.518C104.81 127.442 105.221 128.718 105.221 130.346V131.028H97.169C97.2277 132.245 97.5797 133.177 98.225 133.822C98.8703 134.453 99.765 134.768 100.909 134.768C101.554 134.768 102.17 134.673 102.757 134.482C103.344 134.277 103.901 133.947 104.429 133.492L105.045 134.746C104.561 135.201 103.945 135.56 103.197 135.824C102.449 136.073 101.686 136.198 100.909 136.198ZM100.623 126.43C99.611 126.43 98.8117 126.745 98.225 127.376C97.6383 128.007 97.2937 128.835 97.191 129.862H103.681C103.637 128.777 103.351 127.933 102.823 127.332C102.31 126.731 101.576 126.43 100.623 126.43ZM111.848 136.198C111.012 136.198 110.22 136.081 109.472 135.846C108.724 135.611 108.108 135.281 107.624 134.856L108.196 133.602C108.724 134.027 109.303 134.343 109.934 134.548C110.579 134.739 111.232 134.834 111.892 134.834C112.728 134.834 113.359 134.68 113.784 134.372C114.209 134.064 114.422 133.646 114.422 133.118C114.422 132.707 114.283 132.385 114.004 132.15C113.725 131.901 113.285 131.71 112.684 131.578L110.682 131.138C108.863 130.742 107.954 129.803 107.954 128.322C107.954 127.354 108.335 126.577 109.098 125.99C109.875 125.403 110.887 125.11 112.134 125.11C112.867 125.11 113.564 125.227 114.224 125.462C114.899 125.682 115.456 126.012 115.896 126.452L115.302 127.706C114.877 127.31 114.378 127.009 113.806 126.804C113.249 126.584 112.691 126.474 112.134 126.474C111.313 126.474 110.689 126.635 110.264 126.958C109.839 127.281 109.626 127.706 109.626 128.234C109.626 129.055 110.169 129.583 111.254 129.818L113.256 130.236C114.195 130.441 114.906 130.771 115.39 131.226C115.874 131.666 116.116 132.267 116.116 133.03C116.116 134.013 115.727 134.79 114.95 135.362C114.173 135.919 113.139 136.198 111.848 136.198ZM122.88 136.198C122.044 136.198 121.252 136.081 120.504 135.846C119.756 135.611 119.14 135.281 118.656 134.856L119.228 133.602C119.756 134.027 120.335 134.343 120.966 134.548C121.611 134.739 122.264 134.834 122.924 134.834C123.76 134.834 124.39 134.68 124.816 134.372C125.241 134.064 125.454 133.646 125.454 133.118C125.454 132.707 125.314 132.385 125.036 132.15C124.757 131.901 124.317 131.71 123.716 131.578L121.714 131.138C119.895 130.742 118.986 129.803 118.986 128.322C118.986 127.354 119.367 126.577 120.13 125.99C120.907 125.403 121.919 125.11 123.166 125.11C123.899 125.11 124.596 125.227 125.256 125.462C125.93 125.682 126.488 126.012 126.928 126.452L126.334 127.706C125.908 127.31 125.41 127.009 124.838 126.804C124.28 126.584 123.723 126.474 123.166 126.474C122.344 126.474 121.721 126.635 121.296 126.958C120.87 127.281 120.658 127.706 120.658 128.234C120.658 129.055 121.2 129.583 122.286 129.818L124.288 130.236C125.226 130.441 125.938 130.771 126.422 131.226C126.906 131.666 127.148 132.267 127.148 133.03C127.148 134.013 126.759 134.79 125.982 135.362C125.204 135.919 124.17 136.198 122.88 136.198ZM136.394 136V120.49H138.176V127.068C138.528 126.423 139.019 125.939 139.65 125.616C140.295 125.279 141.014 125.11 141.806 125.11C144.343 125.11 145.612 126.518 145.612 129.334V136H143.83V129.444C143.83 128.447 143.632 127.721 143.236 127.266C142.855 126.797 142.239 126.562 141.388 126.562C140.405 126.562 139.621 126.87 139.034 127.486C138.462 128.087 138.176 128.894 138.176 129.906V136H136.394ZM152.704 136.198C151.971 136.198 151.311 136.059 150.724 135.78C150.152 135.487 149.697 135.091 149.36 134.592C149.023 134.093 148.854 133.536 148.854 132.92C148.854 132.143 149.052 131.527 149.448 131.072C149.859 130.617 150.526 130.295 151.45 130.104C152.389 129.899 153.665 129.796 155.278 129.796H155.982V129.114C155.982 128.205 155.791 127.552 155.41 127.156C155.043 126.745 154.449 126.54 153.628 126.54C152.983 126.54 152.359 126.635 151.758 126.826C151.157 127.002 150.541 127.295 149.91 127.706L149.294 126.408C149.851 126.012 150.526 125.697 151.318 125.462C152.125 125.227 152.895 125.11 153.628 125.11C155.007 125.11 156.026 125.447 156.686 126.122C157.361 126.797 157.698 127.845 157.698 129.268V136H156.026V134.152C155.747 134.783 155.315 135.281 154.728 135.648C154.156 136.015 153.481 136.198 152.704 136.198ZM152.99 134.856C153.87 134.856 154.589 134.555 155.146 133.954C155.703 133.338 155.982 132.561 155.982 131.622V130.962H155.3C154.112 130.962 153.173 131.021 152.484 131.138C151.809 131.241 151.333 131.431 151.054 131.71C150.79 131.974 150.658 132.341 150.658 132.81C150.658 133.411 150.863 133.903 151.274 134.284C151.699 134.665 152.271 134.856 152.99 134.856ZM165.052 136.198C164.216 136.198 163.424 136.081 162.676 135.846C161.928 135.611 161.312 135.281 160.828 134.856L161.4 133.602C161.928 134.027 162.507 134.343 163.138 134.548C163.783 134.739 164.436 134.834 165.096 134.834C165.932 134.834 166.563 134.68 166.988 134.372C167.413 134.064 167.626 133.646 167.626 133.118C167.626 132.707 167.487 132.385 167.208 132.15C166.929 131.901 166.489 131.71 165.888 131.578L163.886 131.138C162.067 130.742 161.158 129.803 161.158 128.322C161.158 127.354 161.539 126.577 162.302 125.99C163.079 125.403 164.091 125.11 165.338 125.11C166.071 125.11 166.768 125.227 167.428 125.462C168.103 125.682 168.66 126.012 169.1 126.452L168.506 127.706C168.081 127.31 167.582 127.009 167.01 126.804C166.453 126.584 165.895 126.474 165.338 126.474C164.517 126.474 163.893 126.635 163.468 126.958C163.043 127.281 162.83 127.706 162.83 128.234C162.83 129.055 163.373 129.583 164.458 129.818L166.46 130.236C167.399 130.441 168.11 130.771 168.594 131.226C169.078 131.666 169.32 132.267 169.32 133.03C169.32 134.013 168.931 134.79 168.154 135.362C167.377 135.919 166.343 136.198 165.052 136.198ZM183.978 136.198C183.127 136.198 182.379 136.007 181.734 135.626C181.103 135.245 180.627 134.724 180.304 134.064V136H178.566V120.49H180.348V127.156C180.656 126.525 181.133 126.027 181.778 125.66C182.423 125.293 183.157 125.11 183.978 125.11C184.931 125.11 185.76 125.337 186.464 125.792C187.183 126.232 187.733 126.87 188.114 127.706C188.51 128.527 188.708 129.51 188.708 130.654C188.708 131.783 188.51 132.766 188.114 133.602C187.733 134.423 187.183 135.061 186.464 135.516C185.76 135.971 184.931 136.198 183.978 136.198ZM183.604 134.768C184.601 134.768 185.401 134.416 186.002 133.712C186.603 132.993 186.904 131.974 186.904 130.654C186.904 129.319 186.603 128.3 186.002 127.596C185.401 126.892 184.601 126.54 183.604 126.54C182.607 126.54 181.807 126.892 181.206 127.596C180.605 128.3 180.304 129.319 180.304 130.654C180.304 131.974 180.605 132.993 181.206 133.712C181.807 134.416 182.607 134.768 183.604 134.768ZM196.65 136.198C194.964 136.198 193.629 135.707 192.646 134.724C191.664 133.727 191.172 132.377 191.172 130.676C191.172 129.576 191.392 128.608 191.832 127.772C192.272 126.921 192.874 126.269 193.636 125.814C194.414 125.345 195.308 125.11 196.32 125.11C197.772 125.11 198.909 125.579 199.73 126.518C200.552 127.442 200.962 128.718 200.962 130.346V131.028H192.91C192.969 132.245 193.321 133.177 193.966 133.822C194.612 134.453 195.506 134.768 196.65 134.768C197.296 134.768 197.912 134.673 198.498 134.482C199.085 134.277 199.642 133.947 200.17 133.492L200.786 134.746C200.302 135.201 199.686 135.56 198.938 135.824C198.19 136.073 197.428 136.198 196.65 136.198ZM196.364 126.43C195.352 126.43 194.553 126.745 193.966 127.376C193.38 128.007 193.035 128.835 192.932 129.862H199.422C199.378 128.777 199.092 127.933 198.564 127.332C198.051 126.731 197.318 126.43 196.364 126.43ZM208.799 136.198C207.113 136.198 205.778 135.707 204.795 134.724C203.813 133.727 203.321 132.377 203.321 130.676C203.321 129.576 203.541 128.608 203.981 127.772C204.421 126.921 205.023 126.269 205.785 125.814C206.563 125.345 207.457 125.11 208.469 125.11C209.921 125.11 211.058 125.579 211.879 126.518C212.701 127.442 213.111 128.718 213.111 130.346V131.028H205.059C205.118 132.245 205.47 133.177 206.115 133.822C206.761 134.453 207.655 134.768 208.799 134.768C209.445 134.768 210.061 134.673 210.647 134.482C211.234 134.277 211.791 133.947 212.319 133.492L212.935 134.746C212.451 135.201 211.835 135.56 211.087 135.824C210.339 136.073 209.577 136.198 208.799 136.198ZM208.513 126.43C207.501 126.43 206.702 126.745 206.115 127.376C205.529 128.007 205.184 128.835 205.081 129.862H211.571C211.527 128.777 211.241 127.933 210.713 127.332C210.2 126.731 209.467 126.43 208.513 126.43ZM216.13 136V125.308H217.868V127.134C218.22 126.459 218.719 125.953 219.364 125.616C220.01 125.279 220.736 125.11 221.542 125.11C224.08 125.11 225.348 126.518 225.348 129.334V136H223.566V129.444C223.566 128.447 223.368 127.721 222.972 127.266C222.591 126.797 221.975 126.562 221.124 126.562C220.142 126.562 219.357 126.87 218.77 127.486C218.198 128.087 217.912 128.894 217.912 129.906V136H216.13ZM238.442 136.198C237.357 136.198 236.536 135.883 235.978 135.252C235.436 134.607 235.164 133.675 235.164 132.458V120.49H236.946V132.326C236.946 133.895 237.57 134.68 238.816 134.68C239.183 134.68 239.513 134.636 239.806 134.548L239.762 136.044C239.308 136.147 238.868 136.198 238.442 136.198ZM245.48 136.198C244.747 136.198 244.087 136.059 243.5 135.78C242.928 135.487 242.474 135.091 242.136 134.592C241.799 134.093 241.63 133.536 241.63 132.92C241.63 132.143 241.828 131.527 242.224 131.072C242.635 130.617 243.302 130.295 244.226 130.104C245.165 129.899 246.441 129.796 248.054 129.796H248.758V129.114C248.758 128.205 248.568 127.552 248.186 127.156C247.82 126.745 247.226 126.54 246.404 126.54C245.759 126.54 245.136 126.635 244.534 126.826C243.933 127.002 243.317 127.295 242.686 127.706L242.07 126.408C242.628 126.012 243.302 125.697 244.094 125.462C244.901 125.227 245.671 125.11 246.404 125.11C247.783 125.11 248.802 125.447 249.462 126.122C250.137 126.797 250.474 127.845 250.474 129.268V136H248.802V134.152C248.524 134.783 248.091 135.281 247.504 135.648C246.932 136.015 246.258 136.198 245.48 136.198ZM245.766 134.856C246.646 134.856 247.365 134.555 247.922 133.954C248.48 133.338 248.758 132.561 248.758 131.622V130.962H248.076C246.888 130.962 245.95 131.021 245.26 131.138C244.586 131.241 244.109 131.431 243.83 131.71C243.566 131.974 243.434 132.341 243.434 132.81C243.434 133.411 243.64 133.903 244.05 134.284C244.476 134.665 245.048 134.856 245.766 134.856ZM258.752 136.198C257.682 136.198 256.758 135.971 255.98 135.516C255.203 135.047 254.602 134.394 254.176 133.558C253.766 132.707 253.56 131.717 253.56 130.588C253.56 128.887 254.022 127.552 254.946 126.584C255.87 125.601 257.139 125.11 258.752 125.11C259.412 125.11 260.065 125.227 260.71 125.462C261.356 125.697 261.891 126.027 262.316 126.452L261.7 127.75C261.275 127.339 260.806 127.039 260.292 126.848C259.794 126.657 259.317 126.562 258.862 126.562C257.748 126.562 256.89 126.914 256.288 127.618C255.687 128.307 255.386 129.305 255.386 130.61C255.386 131.886 255.687 132.898 256.288 133.646C256.89 134.379 257.748 134.746 258.862 134.746C259.317 134.746 259.794 134.651 260.292 134.46C260.806 134.269 261.275 133.961 261.7 133.536L262.316 134.834C261.891 135.259 261.348 135.597 260.688 135.846C260.043 136.081 259.398 136.198 258.752 136.198ZM264.844 136V120.49H266.626V130.06H266.67L271.62 125.308H273.886L268.518 130.456L274.348 136H272.082L266.67 130.984H266.626V136H264.844ZM276.064 122.646V120.644H278.264V122.646H276.064ZM276.284 136V125.308H278.066V136H276.284ZM281.837 136V125.308H283.575V127.134C283.927 126.459 284.426 125.953 285.071 125.616C285.716 125.279 286.442 125.11 287.249 125.11C289.786 125.11 291.055 126.518 291.055 129.334V136H289.273V129.444C289.273 128.447 289.075 127.721 288.679 127.266C288.298 126.797 287.682 126.562 286.831 126.562C285.848 126.562 285.064 126.87 284.477 127.486C283.905 128.087 283.619 128.894 283.619 129.906V136H281.837ZM299.511 140.158C298.587 140.158 297.714 140.033 296.893 139.784C296.086 139.549 295.368 139.19 294.737 138.706L295.331 137.408C295.991 137.877 296.644 138.215 297.289 138.42C297.949 138.625 298.66 138.728 299.423 138.728C301.535 138.728 302.591 137.643 302.591 135.472V133.58C302.283 134.255 301.799 134.79 301.139 135.186C300.494 135.567 299.753 135.758 298.917 135.758C297.934 135.758 297.084 135.531 296.365 135.076C295.646 134.621 295.089 133.998 294.693 133.206C294.312 132.399 294.121 131.468 294.121 130.412C294.121 129.356 294.312 128.432 294.693 127.64C295.089 126.833 295.646 126.21 296.365 125.77C297.084 125.33 297.934 125.11 298.917 125.11C299.753 125.11 300.494 125.301 301.139 125.682C301.799 126.063 302.283 126.584 302.591 127.244V125.308H304.329V135.23C304.329 136.873 303.918 138.105 303.097 138.926C302.29 139.747 301.095 140.158 299.511 140.158ZM299.247 134.306C300.274 134.306 301.088 133.954 301.689 133.25C302.29 132.546 302.591 131.6 302.591 130.412C302.591 129.224 302.29 128.285 301.689 127.596C301.088 126.892 300.274 126.54 299.247 126.54C298.235 126.54 297.428 126.892 296.827 127.596C296.226 128.285 295.925 129.224 295.925 130.412C295.925 131.6 296.226 132.546 296.827 133.25C297.428 133.954 298.235 134.306 299.247 134.306ZM307.826 136V133.756H310.07V136H307.826ZM313.734 126.584L313.272 120.49H315.362L314.944 126.584H313.734ZM317.496 126.584L317.034 120.49H319.124L318.706 126.584H317.496Z" fill="#5F5F7E"/>
</svg>
