<svg width="125" height="19" viewBox="0 0 125 19" fill="none" xmlns="http://www.w3.org/2000/svg">
<path d="M8.888 18.216C7.048 18.216 5.496 17.872 4.232 17.184C2.968 16.48 2.008 15.48 1.352 14.184C0.712 12.888 0.392 11.344 0.392 9.552C0.392 7.776 0.72 6.24 1.376 4.944C2.032 3.632 2.984 2.624 4.232 1.92C5.48 1.216 6.976 0.863999 8.72 0.863999C9.92 0.863999 11.032 1.04 12.056 1.392C13.08 1.744 13.936 2.248 14.624 2.904L13.736 4.848C12.968 4.208 12.184 3.752 11.384 3.48C10.584 3.192 9.696 3.048 8.72 3.048C6.848 3.048 5.424 3.616 4.448 4.752C3.472 5.872 2.984 7.472 2.984 9.552C2.984 11.68 3.48 13.296 4.472 14.4C5.48 15.504 6.984 16.056 8.984 16.056C10.2 16.056 11.408 15.856 12.608 15.456V10.92H8.48V9.048H14.696V17.016C13.976 17.368 13.08 17.656 12.008 17.88C10.952 18.104 9.912 18.216 8.888 18.216ZM22.0747 18.216C20.7947 18.216 19.8347 17.856 19.1947 17.136C18.5707 16.416 18.2587 15.36 18.2587 13.968V1.08H20.6827V13.824C20.6827 15.408 21.3307 16.2 22.6267 16.2C22.8187 16.2 22.9947 16.192 23.1547 16.176C23.3307 16.16 23.5067 16.128 23.6827 16.08L23.6347 18.024C23.0907 18.152 22.5707 18.216 22.0747 18.216ZM30.5654 18.216C29.3814 18.216 28.3574 17.968 27.4934 17.472C26.6294 16.976 25.9574 16.28 25.4774 15.384C25.0134 14.472 24.7814 13.392 24.7814 12.144C24.7814 10.896 25.0134 9.824 25.4774 8.928C25.9574 8.016 26.6294 7.312 27.4934 6.816C28.3574 6.32 29.3814 6.072 30.5654 6.072C31.7174 6.072 32.7254 6.32 33.5894 6.816C34.4534 7.312 35.1254 8.016 35.6054 8.928C36.0854 9.824 36.3254 10.896 36.3254 12.144C36.3254 13.392 36.0854 14.472 35.6054 15.384C35.1254 16.28 34.4534 16.976 33.5894 17.472C32.7254 17.968 31.7174 18.216 30.5654 18.216ZM30.5654 16.344C31.5574 16.344 32.3574 15.984 32.9654 15.264C33.5734 14.544 33.8774 13.504 33.8774 12.144C33.8774 10.784 33.5734 9.752 32.9654 9.048C32.3574 8.328 31.5574 7.968 30.5654 7.968C29.5574 7.968 28.7494 8.328 28.1414 9.048C27.5334 9.752 27.2294 10.784 27.2294 12.144C27.2294 13.504 27.5334 14.544 28.1414 15.264C28.7494 15.984 29.5574 16.344 30.5654 16.344ZM39.0478 18V6.288H41.3998V8.376C42.0078 6.984 43.2718 6.208 45.1918 6.048L45.9838 6L46.1518 8.064L44.6878 8.208C42.5598 8.416 41.4958 9.512 41.4958 11.496V18H39.0478ZM47.7849 3.576V1.056H50.6169V3.576H47.7849ZM48.0009 18V6.288H50.4249V18H48.0009ZM57.5808 18.216C56.7648 18.216 56.0368 18.056 55.3968 17.736C54.7568 17.416 54.2448 16.984 53.8608 16.44C53.4928 15.896 53.3088 15.28 53.3088 14.592C53.3088 13.728 53.5248 13.048 53.9568 12.552C54.4048 12.056 55.1328 11.696 56.1408 11.472C57.1648 11.248 58.5408 11.136 60.2688 11.136H61.0848V10.512C61.0848 9.6 60.8928 8.944 60.5088 8.544C60.1248 8.144 59.4928 7.944 58.6128 7.944C57.9408 7.944 57.2688 8.048 56.5968 8.256C55.9248 8.448 55.2368 8.76 54.5328 9.192L53.7888 7.488C54.3968 7.056 55.1568 6.712 56.0688 6.456C56.9808 6.2 57.8528 6.072 58.6848 6.072C60.2848 6.072 61.4688 6.456 62.2368 7.224C63.0048 7.976 63.3888 9.16 63.3888 10.776V18H61.1088V16.056C60.8208 16.728 60.3728 17.256 59.7648 17.64C59.1568 18.024 58.4288 18.216 57.5808 18.216ZM58.0608 16.488C58.9248 16.488 59.6448 16.184 60.2208 15.576C60.7968 14.968 61.0848 14.2 61.0848 13.272V12.624H60.2928C59.1248 12.624 58.2048 12.68 57.5328 12.792C56.8768 12.904 56.4048 13.096 56.1168 13.368C55.8448 13.624 55.7088 13.984 55.7088 14.448C55.7088 15.056 55.9168 15.552 56.3328 15.936C56.7488 16.304 57.3248 16.488 58.0608 16.488ZM73.2961 18V1.08H80.3041C82.1281 1.08 83.5361 1.52 84.5281 2.4C85.5201 3.264 86.0161 4.48 86.0161 6.048C86.0161 7.312 85.6801 8.352 85.0081 9.168C84.3361 9.968 83.3841 10.504 82.1521 10.776C82.9201 11.032 83.5681 11.648 84.0961 12.624L87.0241 18H84.2881L81.3601 12.6C81.0241 11.976 80.6321 11.56 80.1841 11.352C79.7521 11.128 79.1921 11.016 78.5041 11.016H75.7921V18H73.2961ZM75.7921 9.144H79.8961C82.3601 9.144 83.5921 8.128 83.5921 6.096C83.5921 4.08 82.3601 3.072 79.8961 3.072H75.7921V9.144ZM94.0811 18.216C92.8971 18.216 91.8731 17.968 91.0091 17.472C90.1451 16.976 89.4731 16.28 88.9931 15.384C88.5291 14.472 88.2971 13.392 88.2971 12.144C88.2971 10.896 88.5291 9.824 88.9931 8.928C89.4731 8.016 90.1451 7.312 91.0091 6.816C91.8731 6.32 92.8971 6.072 94.0811 6.072C95.2331 6.072 96.2411 6.32 97.1051 6.816C97.9691 7.312 98.6411 8.016 99.1211 8.928C99.6011 9.824 99.8411 10.896 99.8411 12.144C99.8411 13.392 99.6011 14.472 99.1211 15.384C98.6411 16.28 97.9691 16.976 97.1051 17.472C96.2411 17.968 95.2331 18.216 94.0811 18.216ZM94.0811 16.344C95.0731 16.344 95.8731 15.984 96.4811 15.264C97.0891 14.544 97.3931 13.504 97.3931 12.144C97.3931 10.784 97.0891 9.752 96.4811 9.048C95.8731 8.328 95.0731 7.968 94.0811 7.968C93.0731 7.968 92.2651 8.328 91.6571 9.048C91.0491 9.752 90.7451 10.784 90.7451 12.144C90.7451 13.504 91.0491 14.544 91.6571 15.264C92.2651 15.984 93.0731 16.344 94.0811 16.344ZM106.667 18.216C105.707 18.216 104.811 18.096 103.979 17.856C103.147 17.6 102.451 17.248 101.891 16.8L102.587 15.168C103.179 15.584 103.827 15.904 104.531 16.128C105.251 16.352 105.971 16.464 106.691 16.464C107.539 16.464 108.179 16.312 108.611 16.008C109.043 15.704 109.259 15.296 109.259 14.784C109.259 14.368 109.115 14.048 108.827 13.824C108.539 13.584 108.107 13.4 107.531 13.272L105.251 12.816C103.235 12.4 102.227 11.36 102.227 9.696C102.227 8.592 102.667 7.712 103.547 7.056C104.427 6.4 105.579 6.072 107.003 6.072C107.819 6.072 108.595 6.192 109.331 6.432C110.083 6.672 110.707 7.032 111.203 7.512L110.507 9.144C110.027 8.728 109.475 8.408 108.851 8.184C108.227 7.96 107.611 7.848 107.003 7.848C106.171 7.848 105.539 8.008 105.107 8.328C104.675 8.632 104.459 9.048 104.459 9.576C104.459 10.376 104.987 10.888 106.043 11.112L108.323 11.568C109.363 11.776 110.147 12.128 110.675 12.624C111.219 13.12 111.491 13.792 111.491 14.64C111.491 15.76 111.051 16.64 110.171 17.28C109.291 17.904 108.123 18.216 106.667 18.216ZM119.684 18.216C117.764 18.216 116.252 17.68 115.148 16.608C114.044 15.52 113.492 14.04 113.492 12.168C113.492 10.968 113.732 9.912 114.212 9C114.708 8.072 115.388 7.352 116.252 6.84C117.116 6.328 118.108 6.072 119.228 6.072C120.844 6.072 122.116 6.592 123.044 7.632C123.972 8.656 124.436 10.072 124.436 11.88V12.696H115.844C116.02 15.128 117.308 16.344 119.708 16.344C120.38 16.344 121.036 16.24 121.676 16.032C122.332 15.824 122.948 15.48 123.524 15L124.244 16.68C123.716 17.16 123.036 17.536 122.204 17.808C121.372 18.08 120.532 18.216 119.684 18.216ZM119.324 7.776C118.316 7.776 117.516 8.088 116.924 8.712C116.332 9.336 115.972 10.168 115.844 11.208H122.396C122.348 10.12 122.06 9.28 121.532 8.688C121.004 8.08 120.268 7.776 119.324 7.776Z" fill="#484848"/>
</svg>
