<svg width="155" height="17" viewBox="0 0 155 17" fill="none" xmlns="http://www.w3.org/2000/svg">
<path d="M1.106 13V11.434H3.986V2.47L1.736 3.874L0.98 2.488L4.526 0.309999H5.84V11.434H8.54V13H1.106ZM11.683 13V11.614L15.913 7.078C16.501 6.442 16.921 5.866 17.173 5.35C17.437 4.834 17.569 4.312 17.569 3.784C17.569 2.416 16.765 1.732 15.157 1.732C13.933 1.732 12.835 2.194 11.863 3.118L11.197 1.696C11.677 1.228 12.289 0.855999 13.033 0.579999C13.777 0.291999 14.551 0.147999 15.355 0.147999C16.663 0.147999 17.665 0.447999 18.361 1.048C19.069 1.648 19.423 2.506 19.423 3.622C19.423 4.378 19.237 5.116 18.865 5.836C18.505 6.556 17.935 7.324 17.155 8.14L14.023 11.434H19.927V13H11.683ZM27.6725 13V4.216H29.4365V5.782C29.8925 4.738 30.8405 4.156 32.2805 4.036L32.8745 4L33.0005 5.548L31.9025 5.656C30.3065 5.812 29.5085 6.634 29.5085 8.122V13H27.6725ZM38.7462 13.162C37.3062 13.162 36.1722 12.76 35.3442 11.956C34.5162 11.14 34.1022 10.03 34.1022 8.626C34.1022 7.726 34.2822 6.934 34.6422 6.25C35.0142 5.554 35.5242 5.014 36.1722 4.63C36.8202 4.246 37.5642 4.054 38.4042 4.054C39.6162 4.054 40.5702 4.444 41.2662 5.224C41.9622 5.992 42.3102 7.054 42.3102 8.41V9.022H35.8662C35.9982 10.846 36.9642 11.758 38.7642 11.758C39.2682 11.758 39.7602 11.68 40.2402 11.524C40.7322 11.368 41.1942 11.11 41.6262 10.75L42.1662 12.01C41.7702 12.37 41.2602 12.652 40.6362 12.856C40.0122 13.06 39.3822 13.162 38.7462 13.162ZM38.4762 5.332C37.7202 5.332 37.1202 5.566 36.6762 6.034C36.2322 6.502 35.9622 7.126 35.8662 7.906H40.7802C40.7442 7.09 40.5282 6.46 40.1322 6.016C39.7362 5.56 39.1842 5.332 38.4762 5.332ZM47.1032 13L43.3232 4.216H45.2852L47.9672 10.894L50.7212 4.216H52.5752L48.7412 13H47.1032ZM54.0787 2.182V0.291999H56.2027V2.182H54.0787ZM54.2407 13V4.216H56.0587V13H54.2407ZM63.0997 13.162C61.6597 13.162 60.5257 12.76 59.6977 11.956C58.8697 11.14 58.4557 10.03 58.4557 8.626C58.4557 7.726 58.6357 6.934 58.9957 6.25C59.3677 5.554 59.8777 5.014 60.5257 4.63C61.1737 4.246 61.9177 4.054 62.7577 4.054C63.9697 4.054 64.9237 4.444 65.6197 5.224C66.3157 5.992 66.6637 7.054 66.6637 8.41V9.022H60.2197C60.3517 10.846 61.3177 11.758 63.1177 11.758C63.6217 11.758 64.1137 11.68 64.5937 11.524C65.0857 11.368 65.5477 11.11 65.9797 10.75L66.5197 12.01C66.1237 12.37 65.6137 12.652 64.9897 12.856C64.3657 13.06 63.7357 13.162 63.0997 13.162ZM62.8297 5.332C62.0737 5.332 61.4737 5.566 61.0297 6.034C60.5857 6.502 60.3157 7.126 60.2197 7.906H65.1337C65.0977 7.09 64.8817 6.46 64.4857 6.016C64.0897 5.56 63.5377 5.332 62.8297 5.332ZM71.2586 13L67.9106 4.216H69.7826L72.1406 10.876L74.5706 4.216H75.9746L78.3686 10.912L80.7626 4.216H82.5446L79.1966 13H77.5406L75.2186 6.718L72.9146 13H71.2586ZM87.3675 13.162C86.6475 13.162 85.9755 13.072 85.3515 12.892C84.7275 12.7 84.2055 12.436 83.7855 12.1L84.3075 10.876C84.7515 11.188 85.2375 11.428 85.7655 11.596C86.3055 11.764 86.8455 11.848 87.3855 11.848C88.0215 11.848 88.5015 11.734 88.8255 11.506C89.1495 11.278 89.3115 10.972 89.3115 10.588C89.3115 10.276 89.2035 10.036 88.9875 9.868C88.7715 9.688 88.4475 9.55 88.0155 9.454L86.3055 9.112C84.7935 8.8 84.0375 8.02 84.0375 6.772C84.0375 5.944 84.3675 5.284 85.0275 4.792C85.6875 4.3 86.5515 4.054 87.6195 4.054C88.2315 4.054 88.8135 4.144 89.3655 4.324C89.9295 4.504 90.3975 4.774 90.7695 5.134L90.2475 6.358C89.8875 6.046 89.4735 5.806 89.0055 5.638C88.5375 5.47 88.0755 5.386 87.6195 5.386C86.9955 5.386 86.5215 5.506 86.1975 5.746C85.8735 5.974 85.7115 6.286 85.7115 6.682C85.7115 7.282 86.1075 7.666 86.8995 7.834L88.6095 8.176C89.3895 8.332 89.9775 8.596 90.3735 8.968C90.7815 9.34 90.9855 9.844 90.9855 10.48C90.9855 11.32 90.6555 11.98 89.9955 12.46C89.3355 12.928 88.4595 13.162 87.3675 13.162ZM101.265 13.162C100.653 13.162 100.107 13.042 99.6267 12.802C99.1467 12.562 98.7627 12.238 98.4747 11.83C98.1987 11.422 98.0607 10.96 98.0607 10.444C98.0607 9.796 98.2227 9.286 98.5467 8.914C98.8827 8.542 99.4287 8.272 100.185 8.104C100.953 7.936 101.985 7.852 103.281 7.852H103.893V7.384C103.893 6.7 103.749 6.208 103.461 5.908C103.173 5.608 102.699 5.458 102.039 5.458C101.535 5.458 101.031 5.536 100.527 5.692C100.023 5.836 99.5067 6.07 98.9787 6.394L98.4207 5.116C98.8767 4.792 99.4467 4.534 100.131 4.342C100.815 4.15 101.469 4.054 102.093 4.054C103.293 4.054 104.181 4.342 104.757 4.918C105.333 5.482 105.621 6.37 105.621 7.582V13H103.911V11.542C103.695 12.046 103.359 12.442 102.903 12.73C102.447 13.018 101.901 13.162 101.265 13.162ZM101.625 11.866C102.273 11.866 102.813 11.638 103.245 11.182C103.677 10.726 103.893 10.15 103.893 9.454V8.968H103.299C102.423 8.968 101.733 9.01 101.229 9.094C100.737 9.178 100.383 9.322 100.167 9.526C99.9627 9.718 99.8607 9.988 99.8607 10.336C99.8607 10.792 100.017 11.164 100.329 11.452C100.641 11.728 101.073 11.866 101.625 11.866ZM112.229 13.162C111.125 13.162 110.303 12.88 109.763 12.316C109.223 11.752 108.953 10.936 108.953 9.868V5.62H107.243V4.216H108.953V1.57H110.771V4.216H113.489V5.62H110.771V9.724C110.771 10.36 110.903 10.84 111.167 11.164C111.443 11.488 111.887 11.65 112.499 11.65C112.691 11.65 112.877 11.632 113.057 11.596C113.237 11.548 113.417 11.494 113.597 11.434L113.885 12.802C113.705 12.91 113.453 12.994 113.129 13.054C112.817 13.126 112.517 13.162 112.229 13.162ZM123.747 13V7.078L118.887 0.309999H121.047L124.719 5.44L128.391 0.309999H130.461L125.601 7.096V13H123.747ZM134.446 13.162C133.006 13.162 131.872 12.76 131.044 11.956C130.216 11.14 129.802 10.03 129.802 8.626C129.802 7.726 129.982 6.934 130.342 6.25C130.714 5.554 131.224 5.014 131.872 4.63C132.52 4.246 133.264 4.054 134.104 4.054C135.316 4.054 136.27 4.444 136.966 5.224C137.662 5.992 138.01 7.054 138.01 8.41V9.022H131.566C131.698 10.846 132.664 11.758 134.464 11.758C134.968 11.758 135.46 11.68 135.94 11.524C136.432 11.368 136.894 11.11 137.326 10.75L137.866 12.01C137.47 12.37 136.96 12.652 136.336 12.856C135.712 13.06 135.082 13.162 134.446 13.162ZM134.176 5.332C133.42 5.332 132.82 5.566 132.376 6.034C131.932 6.502 131.662 7.126 131.566 7.906H136.48C136.444 7.09 136.228 6.46 135.832 6.016C135.436 5.56 134.884 5.332 134.176 5.332ZM143.214 13.162C142.254 13.162 141.534 12.892 141.054 12.352C140.586 11.812 140.352 11.02 140.352 9.976V0.309999H142.17V9.868C142.17 11.056 142.656 11.65 143.628 11.65C143.772 11.65 143.904 11.644 144.024 11.632C144.156 11.62 144.288 11.596 144.42 11.56L144.384 13.018C143.976 13.114 143.586 13.162 143.214 13.162ZM146.214 16.24V4.216H147.996V5.71C148.248 5.206 148.632 4.804 149.148 4.504C149.664 4.204 150.258 4.054 150.93 4.054C151.71 4.054 152.388 4.24 152.964 4.612C153.552 4.984 154.002 5.512 154.314 6.196C154.638 6.868 154.8 7.672 154.8 8.608C154.8 9.544 154.638 10.354 154.314 11.038C154.002 11.722 153.552 12.25 152.964 12.622C152.388 12.982 151.71 13.162 150.93 13.162C150.282 13.162 149.7 13.024 149.184 12.748C148.68 12.46 148.296 12.07 148.032 11.578V16.24H146.214ZM150.48 11.758C151.236 11.758 151.836 11.488 152.28 10.948C152.736 10.408 152.964 9.628 152.964 8.608C152.964 7.588 152.736 6.814 152.28 6.286C151.836 5.746 151.236 5.476 150.48 5.476C149.724 5.476 149.118 5.746 148.662 6.286C148.218 6.814 147.996 7.588 147.996 8.608C147.996 9.628 148.218 10.408 148.662 10.948C149.118 11.488 149.724 11.758 150.48 11.758Z" fill="#80819A"/>
</svg>
